<?xml version="1.0" standalone="no"?>
<!DOCTYPE svg PUBLIC "-//W3C//DTD SVG 1.1//EN" "http://www.w3.org/Graphics/SVG/1.1/DTD/svg11.dtd" >
<svg>
<metadata>
Created by FontForge 20090622 at Mon Mar 14 14:10:10 2016
 By deploy user
&#194;&#169;2008 Behaviour/CadsonDemak Co.,Ltd. / Latin&#38;Thai font Exclusive Design for CAT PCL.
</metadata>
<defs>
<font id="CAT" horiz-adv-x="0" >
  <font-face 
    font-family="CAT"
    font-weight="400"
    font-stretch="normal"
    units-per-em="1000"
    panose-1="2 0 5 6 0 0 0 2 0 4"
    ascent="800"
    descent="-200"
    x-height="430"
    cap-height="632"
    bbox="-511 -375 3436 851"
    underline-thickness="20"
    underline-position="-113"
    unicode-range="U+0020-U+FB02"
  />
<missing-glyph horiz-adv-x="250" 
 />
    <glyph glyph-name="uni0E4F.liga" unicode="&#xe4f;&#x22;" horiz-adv-x="468" 
d="M411 180q0 -73 -51 -124.5t-123 -51.5q-73 0 -124 51.5t-51 124.5q0 72 51 123.5t124 51.5q72 0 123 -51.5t51 -123.5zM384 180q0 61 -43 104.5t-104 43.5t-104.5 -43.5t-43.5 -104.5q0 -62 43.5 -105.5t104.5 -43.5t104 43.5t43 105.5zM337 180q0 -43 -29.5 -72.5
t-70.5 -29.5q-42 0 -72 30t-30 71q0 43 30 72.5t71 29.5q42 0 71.5 -30t29.5 -71zM185 410h-40l-11 116v52h62v-52zM329 410h-40l-11 116v52h62v-52z" />
    <glyph glyph-name="uni0E24.liga" unicode="&#xe24;&#xe32;" horiz-adv-x="847" 
d="M424 -181h-72v527q0 58 -21 78.5t-81 20.5q-84 0 -129 -11v-377h68v-57h-140v480q93 26 201 26q174 0 174 -160v-527zM797 -181h-73v525q0 99 -93 99q-77 0 -137 -10v60q67 8 143 8q160 0 160 -170v-512z" />
    <glyph glyph-name="uni0E26.liga" unicode="&#xe26;&#xe32;" horiz-adv-x="851" 
d="M802 -181h-73v525q0 99 -94 99q-76 0 -136 -10v60q65 8 143 8q160 0 160 -170v-512zM436 -181h-72v527q0 58 -20 78.5t-80 20.5q-81 0 -125 -11v-434h-121v57h49v423q92 26 197 26q172 0 172 -160v-527z" />
    <glyph glyph-name="fi" unicode="fi" horiz-adv-x="526" 
d="M454 0h-72v430h72v-430zM167 0h-72v375h-72v55h72v79q0 132 138 132q28 0 62 -2v-60q-48 2 -62 2q-66 0 -66 -72v-79h117v-55h-117v-375zM454 0h-72v430h72v-430zM454 487h-72v71h72v-71z" />
    <glyph glyph-name="fl" unicode="fl" horiz-adv-x="526" 
d="M454 0h-72v632h72v-632zM167 0h-72v375h-72v55h72v79q0 132 138 132q28 0 62 -2v-60q-48 2 -62 2q-66 0 -66 -72v-79h117v-55h-117v-375z" />
    <glyph glyph-name="uni0E5A" unicode="&#xe2f;&#xe2f;" horiz-adv-x="450" 
 />
    <glyph glyph-name=".notdef" horiz-adv-x="250" 
 />
    <glyph glyph-name=".null" 
 />
    <glyph glyph-name="nonmarkingreturn" horiz-adv-x="175" 
 />
    <glyph glyph-name="space" unicode=" " horiz-adv-x="247" 
 />
    <glyph glyph-name="percent" unicode="%" horiz-adv-x="848" 
d="M311 -11h-59l284 654h62zM358 450q0 -99 -31 -144q-35 -49 -116 -49q-82 0 -116 49q-32 45 -32 144q0 100 33 146.5t115 46.5q81 0 116 -48q31 -45 31 -145zM298 450q0 86 -18 115t-69 29q-52 0 -70 -29t-18 -115q0 -85 18.5 -114.5t69.5 -29.5q50 0 68.5 29.5
t18.5 114.5zM785 182q0 -99 -32 -144q-34 -49 -116 -49q-81 0 -115 49q-32 45 -32 144q0 100 32 144q34 48 115 48q82 0 116 -48q32 -44 32 -144zM724 182q0 86 -18 115t-69 29t-69 -29t-18 -115t18.5 -115t68.5 -29t68.5 29t18.5 115z" />
    <glyph glyph-name="ampersand" unicode="&#x26;" horiz-adv-x="582" 
d="M473 0h-57l-12 39q-49 -39 -130 -39q-193 0 -193 175q0 124 84 153q-64 37 -64 145q0 159 170 159q71 0 141 -12v-67q-58 14 -141 14q-52 0 -73.5 -21.5t-21.5 -72.5q0 -67 20 -94t66 -27h257v-66h-46v-286zM401 106v181h-149q-54 0 -74 -23t-20 -89q0 -64 23.5 -87
t92.5 -23q73 0 127 41z" />
    <glyph glyph-name="quotesingle" unicode="'" horiz-adv-x="197" 
d="M119 439h-41l-11 141v52h63v-52z" />
    <glyph glyph-name="parenleft" unicode="(" horiz-adv-x="243" 
d="M252 -160l-63 -16q-131 184 -131 443q0 260 131 444l63 -16q-68 -99 -97.5 -199.5t-29.5 -228.5t29.5 -228.5t97.5 -198.5z" />
    <glyph glyph-name="parenright" unicode=")" horiz-adv-x="243" 
d="M185 267q0 -257 -131 -443l-63 16q68 98 97.5 198.5t29.5 228.5t-29.5 228.5t-97.5 199.5l63 16q131 -186 131 -444z" />
    <glyph glyph-name="asterisk" unicode="*" horiz-adv-x="469" 
d="M320 262l-86 142l-86 -142l-48 33l98 138l-156 36l18 55l150 -47l-7 155h58l-6 -155l152 47l18 -55l-155 -36l98 -138z" />
    <glyph glyph-name="plus" unicode="+" horiz-adv-x="420" 
d="M373 248h-130v-129h-65v129h-130v65h130v131h65v-131h130v-65z" />
    <glyph glyph-name="comma" unicode="," horiz-adv-x="208" 
d="M154 94l-96 -202h-51l61 202h86z" />
    <glyph glyph-name="hyphen" unicode="-" horiz-adv-x="343" 
d="M302 202h-262v62h262v-62z" />
    <glyph glyph-name="period" unicode="." horiz-adv-x="208" 
d="M154 0h-100v100h100v-100z" />
    <glyph glyph-name="slash" unicode="/" horiz-adv-x="379" 
d="M61 -22h-65l320 654h66z" />
    <glyph glyph-name="zero" unicode="0" horiz-adv-x="554" 
d="M500 316q0 -178 -50.5 -252.5t-172.5 -74.5t-172.5 74.5t-50.5 252.5q0 182 49 254.5t174 72.5t174 -72.5t49 -254.5zM427 316q0 162 -29.5 214.5t-120.5 52.5t-120.5 -52.5t-29.5 -214.5q0 -161 29.5 -214t120.5 -53t120.5 53t29.5 214z" />
    <glyph glyph-name="one" unicode="1" horiz-adv-x="360" 
d="M301 0h-238v58h84v510h-80v64h152v-574h82v-58z" />
    <glyph glyph-name="two" unicode="2" horiz-adv-x="505" 
d="M432 0h-374v92q0 103 80 169l148 91q80 52 80 120q0 59 -28.5 82t-96.5 23q-99 0 -162 -15v70q95 11 162 11q201 0 201 -171q0 -89 -81 -150l-150 -91q-81 -57 -81 -138v-35h302v-58z" />
    <glyph glyph-name="three" unicode="3" horiz-adv-x="460" 
d="M415 180q0 -87 -54 -136.5t-156 -49.5q-77 0 -165 10v68q62 -13 165 -13q72 0 102 28t30 93q0 63 -23.5 88.5t-79.5 24.5h-110v64q110 0 110 1q85 0 85 105q0 66 -22 88t-92 22q-108 0 -165 -12v67q81 11 165 11q190 0 190 -176q0 -93 -64 -128q84 -33 84 -155z" />
    <glyph glyph-name="four" unicode="4" horiz-adv-x="516" 
d="M397 0h-70v156h-291v62l287 414h74v-415h74v-61h-74v-156zM327 217v305l-213 -305h213z" />
    <glyph glyph-name="five" unicode="5" horiz-adv-x="477" 
d="M427 190q0 -101 -52 -151t-169 -50q-64 0 -148 12v66q80 -17 148 -17q78 0 112 32.5t34 107.5q0 82 -30 110t-116 28q-45 0 -96 -17l-56 27l21 294h307v-67h-246l-15 -187q45 12 92 12q114 0 164 -45.5t50 -154.5z" />
    <glyph glyph-name="six" unicode="6" horiz-adv-x="527" 
d="M473 195q0 -206 -202 -206q-119 0 -166 66q-51 71 -51 258q0 183 47 254q49 76 179 76q73 0 143 -12v-67q-66 14 -143 14q-84 0 -114 -40q-33 -44 -37 -177q73 30 156 30q97 0 142.5 -45t45.5 -151zM405 195q0 75 -26 104t-94 29q-75 0 -156 -32q1 -151 34 -203
q29 -47 111 -47q66 0 98.5 34.5t32.5 114.5z" />
    <glyph glyph-name="seven" unicode="7" horiz-adv-x="449" 
d="M192 0h-78l209 566h-287v66h368v-48z" />
    <glyph glyph-name="eight" unicode="8" horiz-adv-x="540" 
d="M400 465q0 67 -26 91.5t-104 24.5t-104 -24.5t-26 -91.5q0 -111 93 -111h74q93 0 93 111zM490 173q0 -185 -220 -185q-221 0 -221 185q0 56 27 100q26 41 65 56q-30 17 -51 54.5t-21 81.5q0 178 201 178t201 -178q0 -44 -22 -83q-20 -35 -50 -53q39 -15 64 -56
q27 -44 27 -100zM418 173q0 119 -108 119h-80q-108 0 -108 -119q0 -69 34 -94.5t114 -25.5t114 25.5t34 94.5z" />
    <glyph glyph-name="nine" unicode="9" horiz-adv-x="527" 
d="M473 327q0 -179 -50 -256t-167 -77q-98 0 -144 9v65q49 -10 144 -10q75 0 109.5 53.5t34.5 178.5q-59 -49 -154 -49q-97 0 -143 44q-49 46 -49 151q0 207 202 207q119 0 166 -64q51 -70 51 -252zM400 355q0 136 -36 187q-32 44 -110 44q-132 0 -132 -150q0 -74 28 -103.5
t96 -29.5q93 0 154 52z" />
    <glyph glyph-name="colon" unicode=":" horiz-adv-x="207" 
d="M154 292h-100v99h100v-99zM154 0h-100v100h100v-100z" />
    <glyph glyph-name="semicolon" unicode=";" horiz-adv-x="213" 
d="M156 94l-94 -202h-53l61 202h86zM164 292h-100v99h100v-99z" />
    <glyph glyph-name="less" unicode="&#x3c;" horiz-adv-x="420" 
d="M340 77l-265 188v64l265 188v-70l-217 -149l217 -150v-71z" />
    <glyph glyph-name="equal" unicode="=" horiz-adv-x="420" 
d="M373 318h-325v64h325v-64zM373 179h-325v65h325v-65z" />
    <glyph glyph-name="greater" unicode="&#x3e;" horiz-adv-x="420" 
d="M346 265l-266 -188v71l217 150l-217 149v70l266 -188v-64z" />
    <glyph glyph-name="question" unicode="?" horiz-adv-x="395" 
d="M205 166h-70v72q0 57 39 95l74 62q39 40 39 99q0 86 -112 86q-83 0 -139 -23v66q63 20 144 20q80 0 129.5 -39.5t49.5 -109.5q0 -75 -40 -123q-13 -17 -74 -65q-40 -35 -40 -77v-63zM218 0h-93v90h93v-90z" />
    <glyph glyph-name="at" unicode="@" horiz-adv-x="909" 
d="M848 214q0 -224 -162 -224q-88 0 -124 73q-24 -30 -67 -51t-78 -21q-64 0 -99 35.5t-35 100.5q0 143 160 143h101v47q0 65 -77 65q-87 0 -141 -9v60q65 8 147 8q143 0 143 -137v-148q0 -116 81 -116q83 0 83 175q0 213 -66.5 293t-237.5 80q-199 0 -272.5 -82.5
t-73.5 -299.5q0 -171 68 -250t220 -79h228v-57h-242q-343 0 -343 386q0 236 90 336q94 104 325 104q208 0 293 -106q79 -98 79 -326zM544 100v112h-106q-83 0 -83 -85q0 -37 18 -57.5t45 -20.5q68 0 126 51z" />
    <glyph glyph-name="A" unicode="A" horiz-adv-x="547" 
d="M535 0h-84l-61 186h-233l-61 -186h-84l221 632h81zM370 247l-96 292l-97 -292h193z" />
    <glyph glyph-name="B" unicode="B" horiz-adv-x="535" 
d="M489 175q0 -95 -39.5 -135t-125.5 -40h-245v632h244q146 0 146 -159q0 -108 -64 -145q84 -29 84 -153zM393 473q0 94 -69 94h-169v-215h153q46 0 65.5 27t19.5 94zM411 175q0 67 -19.5 89.5t-73.5 22.5h-163v-222h169q48 0 67.5 24t19.5 86z" />
    <glyph glyph-name="C" unicode="C" horiz-adv-x="505" 
d="M460 -5q-73 -11 -143 -11q-155 0 -206 74q-44 65 -44 255q0 201 47.5 265.5t202.5 64.5q73 0 143 -12v-67q-66 14 -143 14q-80 0 -112 -17q-37 -19 -50 -75q-11 -50 -11 -173t11 -172q13 -57 50 -76q32 -16 112 -16q82 0 143 13v-67z" />
    <glyph glyph-name="D" unicode="D" horiz-adv-x="584" 
d="M517 315q0 -187 -46 -251t-180 -64h-212v632h207q144 0 189 -64q42 -60 42 -253zM440 316q0 120 -11 170.5t-44 67.5q-27 13 -98 13h-132v-502h135q97 0 123.5 43t26.5 208z" />
    <glyph glyph-name="E" unicode="E" horiz-adv-x="478" 
d="M433 0h-354v632h354v-65h-278v-207h239v-65h-239v-230h278v-65z" />
    <glyph glyph-name="F" unicode="F" horiz-adv-x="440" 
d="M155 0h-76v632h333v-65h-257v-207h229v-65h-229v-295z" />
    <glyph glyph-name="G" unicode="G" horiz-adv-x="566" 
d="M495 2q-108 -13 -178 -13q-149 0 -201 71q-49 67 -49 253q0 190 44 255q51 75 206 75q90 0 160 -12l-4 -67q-66 14 -156 14q-80 0 -112 -17q-37 -19 -50 -75q-11 -50 -11 -173q0 -161 32.5 -209.5t140.5 -48.5q50 0 102 7v226h-100v63h176v-349z" />
    <glyph glyph-name="H" unicode="H" horiz-adv-x="580" 
d="M500 0h-75v295h-270v-295h-76v632h76v-272h270v272h75v-632z" />
    <glyph glyph-name="I" unicode="I" horiz-adv-x="238" 
d="M157 0h-76v632h76v-632z" />
    <glyph glyph-name="J" unicode="J" horiz-adv-x="299" 
d="M223 130q0 -140 -147 -140q-37 0 -71 4v66q36 -4 71 -4q72 0 72 74v502h75v-502z" />
    <glyph glyph-name="L" unicode="L" horiz-adv-x="433" 
d="M410 0h-331v632h76v-567h255v-65z" />
    <glyph glyph-name="M" unicode="M" horiz-adv-x="660" 
d="M580 0h-75v448l-142 -333h-66l-142 333v-448h-76v632h76l175 -417l175 417h75v-632z" />
    <glyph glyph-name="N" unicode="N" horiz-adv-x="599" 
d="M520 0h-75l-290 485v-485h-76v632h76l290 -491v491h75v-632z" />
    <glyph glyph-name="O" unicode="O" horiz-adv-x="598" 
d="M533 316q0 -181 -51 -254t-183 -73t-184 74q-50 71 -50 253q0 180 51 253.5t183 73.5q131 0 182.5 -73.5t51.5 -253.5zM455 316q0 159 -30 209.5t-126 50.5t-126.5 -50.5t-30.5 -209.5q0 -161 30 -210.5t127 -49.5q96 0 126 49.5t30 210.5z" />
    <glyph glyph-name="P" unicode="P" horiz-adv-x="511" 
d="M471 428q0 -104 -41.5 -148.5t-133.5 -44.5h-141v-235h-76v632h217q96 0 135.5 -46t39.5 -158zM393 428q0 88 -18 113.5t-79 25.5h-141v-267h141q61 0 79 24t18 104z" />
    <glyph glyph-name="Q" unicode="Q" horiz-adv-x="598" 
d="M533 316q0 -141 -29 -210q-30 -72 -107 -108l106 -103h-100l-96 96q-132 0 -185 69q-57 73 -57 256q0 180 51 253.5t183 73.5q131 0 182.5 -73.5t51.5 -253.5zM455 316q0 159 -30 209.5t-126 50.5t-126.5 -50.5t-30.5 -209.5q0 -161 30 -210.5t127 -49.5q96 0 126 49.5
t30 210.5z" />
    <glyph glyph-name="R" unicode="R" horiz-adv-x="529" 
d="M471 428q0 -155 -102 -184l136 -244h-87l-130 235h-133v-235h-76v632h217q96 0 135.5 -46t39.5 -158zM393 428q0 88 -18 113.5t-79 25.5h-141v-267h141q61 0 79 24t18 104z" />
    <glyph glyph-name="S" unicode="S" horiz-adv-x="470" 
d="M431 168q0 -179 -202 -179q-93 0 -167 14v71q79 -17 167 -17q125 0 125 111q0 74 -81 109l-150 56q-81 44 -81 139q0 171 194 171q67 0 162 -11v-70q-66 14 -162 14q-67 0 -91.5 -22t-24.5 -82q0 -62 81 -92q148 -55 149 -56q81 -49 81 -156z" />
    <glyph glyph-name="T" unicode="T" horiz-adv-x="474" 
d="M274 0h-75v567h-181v65h438v-65h-182v-567z" />
    <glyph glyph-name="U" unicode="U" horiz-adv-x="578" 
d="M504 208q0 -219 -215 -219t-215 219v424h75v-424q0 -83 31.5 -117.5t108.5 -34.5t108 34.5t31 117.5v424h76v-424z" />
    <glyph glyph-name="V" unicode="V" horiz-adv-x="508" 
d="M294 0h-80l-203 632h83l161 -530l163 530h80z" />
    <glyph glyph-name="W" unicode="W" horiz-adv-x="709" 
d="M564 0h-90l-119 490l-120 -490h-89l-123 632h78l92 -521l126 521h72l126 -521l91 521h78z" />
    <glyph glyph-name="X" unicode="X" horiz-adv-x="502" 
d="M491 0h-87l-156 258l-154 -258h-83l197 323l-190 309h87l145 -240l143 240h83l-186 -305z" />
    <glyph glyph-name="Y" unicode="Y" horiz-adv-x="493" 
d="M284 0h-75v240l-202 392h81l160 -314l157 314h81l-202 -390v-242z" />
    <glyph glyph-name="Z" unicode="Z" horiz-adv-x="496" 
d="M463 0h-432v58l341 507h-333v67h424v-58l-338 -507h338v-67z" />
    <glyph glyph-name="bracketleft" unicode="[" horiz-adv-x="247" 
d="M229 -171h-166v877h166v-63h-96v-751h96v-63z" />
    <glyph glyph-name="backslash" unicode="\" horiz-adv-x="379" 
d="M382 -22h-64l-322 654h67z" />
    <glyph glyph-name="bracketright" unicode="]" horiz-adv-x="247" 
d="M184 -171h-166v63h96v751h-96v63h166v-877z" />
    <glyph glyph-name="asciicircum" unicode="^" horiz-adv-x="390" 
d="M379 404h-70l-114 184l-114 -184h-70l155 239h58z" />
    <glyph glyph-name="underscore" unicode="_" horiz-adv-x="450" 
d="M450 -176h-450v56h450v-56z" />
    <glyph glyph-name="grave" unicode="`" horiz-adv-x="222" 
d="M222 473l-222 82v74l222 -102v-54z" />
    <glyph glyph-name="a" unicode="a" horiz-adv-x="445" 
d="M375 0h-63l-9 39q-66 -48 -127 -48q-63 0 -98 36t-35 100q0 143 159 143h101v47q0 65 -76 65q-88 0 -142 -9v60q67 8 148 8q142 0 142 -137v-304zM303 100v112h-105q-84 0 -84 -85q0 -37 18.5 -57.5t45.5 -20.5q61 0 125 51z" />
    <glyph glyph-name="b" unicode="b" horiz-adv-x="490" 
d="M430 220q0 -127 -43 -179t-141 -52q-60 0 -173 11v632h72v-213q64 22 132 22q82 0 117.5 -50t35.5 -171zM357 219q0 98 -20 133q-17 30 -63 30q-63 0 -129 -22v-304q34 -8 102 -8q62 0 86 34.5t24 136.5z" />
    <glyph glyph-name="c" unicode="c" horiz-adv-x="406" 
d="M367 -5q-46 -6 -111 -6q-110 0 -155 55q-43 52 -43 176q0 116 45 168.5t148 52.5q60 0 113 -5v-61q-41 6 -113 6q-69 0 -95 -34.5t-26 -126.5q0 -100 31 -138q27 -34 95 -34q74 0 111 7v-60z" />
    <glyph glyph-name="d" unicode="d" horiz-adv-x="498" 
d="M353 100v260q-68 22 -129 22q-47 0 -67 -30q-24 -36 -24 -133q0 -87 29 -131q25 -39 66 -39q58 0 125 51zM425 0h-61l-9 39q-26 -21 -64 -35t-65 -14q-166 0 -166 230q0 120 40 172q37 49 120 49q69 0 133 -22v213h72v-632z" />
    <glyph glyph-name="e" unicode="e" horiz-adv-x="457" 
d="M391 -1q-73 -10 -147 -10q-100 0 -140 48q-44 51 -44 183q0 120 42 170.5t138 50.5q98 0 131 -47t33 -182v-23h-273q3 -88 27 -116q21 -25 86 -25q83 0 147 12v-61zM331 249q0 83 -21 111q-18 24 -70 24q-66 0 -89 -38q-16 -26 -19 -97h199z" />
    <glyph glyph-name="f" unicode="f" horiz-adv-x="314" 
d="M167 0h-72v381h-72v55h72v73q0 132 138 132q28 0 62 -2v-60q-48 2 -62 2q-66 0 -66 -72v-73h106v-55h-106v-381z" />
    <glyph glyph-name="g" unicode="g" horiz-adv-x="484" 
d="M411 -27q0 -152 -181 -152q-64 0 -134 12v63q81 -12 134 -12q62 0 85.5 20t23.5 69v49q-51 -22 -110 -22q-90 0 -129.5 50t-39.5 170q0 222 183 222q79 0 168 -19v-450zM339 83v291q-37 9 -93 9q-63 0 -89 -41q-25 -37 -25 -122q0 -95 22 -128.5t75 -33.5q52 0 110 25z
" />
    <glyph glyph-name="h" unicode="h" horiz-adv-x="481" 
d="M411 0h-72v313q0 70 -67 70q-57 0 -127 -25v-358h-72v632h72v-213q64 22 127 22q139 0 139 -127v-314z" />
    <glyph glyph-name="i" unicode="i" horiz-adv-x="218" 
d="M145 0h-72v430h72v-430zM145 487h-72v71h72v-71z" />
    <glyph glyph-name="j" unicode="j" horiz-adv-x="228" 
d="M155 -41q0 -136 -147 -136q-46 0 -71 3v60q30 -5 71 -5t58 17.5t17 60.5v471h72v-471zM155 487h-72v71h72v-71z" />
    <glyph glyph-name="l" unicode="l" horiz-adv-x="218" 
d="M145 0h-72v632h72v-632z" />
    <glyph glyph-name="m" unicode="m" horiz-adv-x="673" 
d="M604 0h-72v320q0 62 -51 62q-53 0 -107 -51v-331h-72v332q0 50 -53 50q-42 0 -104 -53v-329h-72v430h57l15 -37q60 48 120 48q76 0 99 -52q58 52 128 52q52 0 82 -32.5t30 -88.5v-320z" />
    <glyph glyph-name="n" unicode="n" horiz-adv-x="478" 
d="M409 0h-72v320q0 62 -57 62q-68 0 -135 -50v-332h-72v430h57l14 -36q64 47 147 47q53 0 85.5 -32.5t32.5 -88.5v-320z" />
    <glyph glyph-name="o" unicode="o" horiz-adv-x="495" 
d="M436 215q0 -126 -40.5 -176t-148.5 -50q-107 0 -148 50t-41 176q0 121 38 171q42 55 151 55t151 -55q38 -49 38 -171zM364 215q0 106 -21.5 136.5t-95.5 30.5q-73 0 -95 -30.5t-22 -136.5q0 -107 24 -139q22 -28 93 -28q72 0 94.5 29.5t22.5 137.5z" />
    <glyph glyph-name="p" unicode="p" horiz-adv-x="490" 
d="M357 211q0 101 -17.5 136t-65.5 35q-64 0 -129 -48v-273q52 -13 102 -13q62 0 85 29q25 34 25 134zM430 212q0 -126 -42.5 -175t-141.5 -49q-45 0 -101 14v-182h-72v610h57l14 -36q63 47 133 47q84 0 118.5 -52.5t34.5 -176.5z" />
    <glyph glyph-name="q" unicode="q" horiz-adv-x="487" 
d="M414 -202h-72v205q-51 -15 -97 -15q-99 0 -142 53.5t-43 184.5q0 216 183 216q82 0 171 -19v-625zM342 63v311q-39 9 -96 9q-63 0 -88.5 -36.5t-25.5 -120.5q0 -104 26 -143q24 -35 85 -35q62 0 99 15z" />
    <glyph glyph-name="r" unicode="r" horiz-adv-x="330" 
d="M145 0h-72v430h57l14 -39q49 45 136 45h21v-68h-21q-90 0 -135 -38v-330z" />
    <glyph glyph-name="s" unicode="s" horiz-adv-x="382" 
d="M346 111q0 -68 -38.5 -95t-124.5 -27q-63 0 -133 9v64q54 -14 134 -14q48 0 69.5 13.5t21.5 49.5q0 29 -14.5 41t-74.5 33q-96 33 -121 57.5t-25 85.5q0 113 154 113q70 0 128 -8v-60q-55 9 -128 9q-49 0 -67 -12.5t-18 -41.5q0 -31 22 -46q10 -6 53 -21q106 -36 134 -63
t28 -87z" />
    <glyph glyph-name="t" unicode="t" horiz-adv-x="323" 
d="M289 -3q-60 -5 -78 -5q-65 0 -91 27.5t-26 93.5v262h-73v55h73v127h72v-127h116v-55h-116v-262q0 -34 10 -48t35 -14q42 0 78 6v-60z" />
    <glyph glyph-name="u" unicode="u" horiz-adv-x="474" 
d="M401 0h-57l-12 39q-61 -49 -126 -49q-79 0 -108 33t-29 130v277h72v-278q0 -64 14 -83.5t53 -19.5q57 0 121 51v330h72v-430z" />
    <glyph glyph-name="v" unicode="v" horiz-adv-x="400" 
d="M239 0h-91l-143 430h79l112 -367l123 367h75z" />
    <glyph glyph-name="w" unicode="w" horiz-adv-x="581" 
d="M463 0h-88l-84 317l-85 -317h-88l-108 430h78l76 -355l90 355h74l90 -355l75 355h78z" />
    <glyph glyph-name="x" unicode="x" horiz-adv-x="426" 
d="M409 0h-90l-111 166l-110 -166h-81l152 220l-142 210h87l96 -153l100 153h77l-140 -210z" />
    <glyph glyph-name="y" unicode="y" horiz-adv-x="409" 
d="M174 -180h-78l76 192l-167 418h84l120 -324l114 324h80z" />
    <glyph glyph-name="z" unicode="z" horiz-adv-x="404" 
d="M360 0h-329v49l245 324h-229v57h316v-49l-246 -324h243v-57z" />
    <glyph glyph-name="braceleft" unicode="{" horiz-adv-x="270" 
d="M261 -176q-82 7 -119.5 50.5t-37.5 132.5v127q0 52 -17 74.5t-60 28.5v59q43 5 60 27.5t17 75.5v127q0 89 37.5 132.5t119.5 50.5v-66q-87 0 -87 -117v-127q0 -89 -58 -133q58 -42 58 -132v-127q0 -117 87 -117v-66z" />
    <glyph glyph-name="bar" unicode="|" horiz-adv-x="193" 
d="M129 -189h-65v832h65v-832z" />
    <glyph glyph-name="braceright" unicode="}" horiz-adv-x="270" 
d="M243 237q-43 -6 -60 -28.5t-17 -74.5v-127q0 -89 -37.5 -132.5t-119.5 -50.5v66q87 0 87 117v127q0 92 58 132q-58 42 -58 133v127q0 117 -87 117v66q82 -7 119.5 -50.5t37.5 -132.5v-127q0 -53 17 -75.5t60 -27.5v-59z" />
    <glyph glyph-name="asciitilde" unicode="~" horiz-adv-x="431" 
d="M409 261q-42 -32 -104 -32q-35 0 -86.5 20.5t-76.5 20.5q-60 0 -120 -48v69q57 41 120 41q41 0 92.5 -20t76.5 -20q55 0 98 37v-68z" />
    <glyph glyph-name="uni0E33.alt1" horiz-adv-x="348" 
d="M303 0h-73v344q0 99 -93 99q-77 0 -137 -10v60q65 8 143 8q160 0 160 -170v-331zM-170 624q0 -36 -25.5 -62t-61.5 -26t-61.5 26t-25.5 62t25.5 61.5t61.5 25.5t61.5 -25.5t25.5 -61.5zM-218 624q0 15 -11.5 26t-27.5 11q-15 0 -26.5 -11t-11.5 -26q0 -16 11.5 -27.5
t26.5 -11.5q16 0 27.5 11.5t11.5 27.5z" />
    <glyph glyph-name="quotedbl" unicode="&#x22;" horiz-adv-x="334" 
d="M123 439h-40l-11 141v52h62v-52zM251 439h-40l-11 141v52h62v-52z" />
    <glyph glyph-name="exclam" unicode="!" horiz-adv-x="219" 
d="M141 166h-65l-9 345v121h84v-121zM156 0h-93v90h93v-90z" />
    <glyph glyph-name="uni0E4E.alt1" 
 />
    <glyph glyph-name="exclamdown" unicode="&#xa1;" horiz-adv-x="219" 
d="M142 430l9 -466h-84v121l10 345h65zM63 506v90h93v-90h-93z" />
    <glyph glyph-name="cent" unicode="&#xa2;" horiz-adv-x="409" 
d="M367 -5q-41 -5 -92 -6v-90h-47v91q-94 7 -132 60t-38 170q0 109 40 161.5t130 58.5v100h47v-99q52 -2 89 -5v-61q-26 4 -89 6v-333q56 0 92 7v-60zM228 49v331q-55 -5 -77.5 -41t-22.5 -119q0 -89 25 -129q23 -36 75 -42z" />
    <glyph glyph-name="sterling" unicode="&#xa3;" horiz-adv-x="506" 
d="M440 0h-399v64h63v230h-62v58h62v101q0 192 188 192q71 0 132 -15v-65q-58 17 -132 17q-67 0 -91 -27.5t-24 -100.5v-102h178v-58h-178v-230h263v-64z" />
    <glyph glyph-name="currency" unicode="&#xa4;" horiz-adv-x="350" 
d="M331 220q0 -58 -30 -92l34 -36l-32 -32l-33 35q-37 -31 -95 -31q-56 0 -93 31l-34 -35l-33 32l35 36q-31 37 -31 92q0 59 31 93l-35 34l33 33l34 -34q40 30 93 30t95 -30l33 34l32 -33l-34 -34q30 -31 30 -93zM276 220q0 42 -29 73.5t-72 31.5q-42 0 -71 -31t-29 -74
t29.5 -74t70.5 -31q43 0 72 31.5t29 73.5z" />
    <glyph glyph-name="yen" unicode="&#xa5;" horiz-adv-x="493" 
d="M280 0h-67v119h-135v48h135v73l-6 13h-129v48h104l-168 331h71l163 -331l161 331h70l-169 -331h105v-48h-130l-5 -10v-76h135v-48h-135v-119z" />
    <glyph glyph-name="brokenbar" unicode="&#xa6;" horiz-adv-x="193" 
d="M129 355h-65v351h65v-351zM129 -171h-65v351h65v-351z" />
    <glyph glyph-name="section" unicode="&#xa7;" horiz-adv-x="471" 
d="M431 186q0 -46 -37 -83q38 -41 38 -111q0 -179 -203 -179q-86 0 -166 13v71q79 -17 166 -17q126 0 126 112q0 75 -81 107l-150 50q-81 39 -81 128q0 49 42 93q-43 35 -43 102q0 171 194 171q67 0 162 -11v-70q-66 14 -162 14q-67 0 -91.5 -22t-24.5 -82q0 -62 81 -91
l149 -50q81 -33 81 -145zM354 186q0 80 -74 106l-143 48q-16 -25 -16 -63q0 -45 37 -71q24 -16 87 -34q71 -20 98 -33q11 28 11 47z" />
    <glyph glyph-name="dieresis" unicode="&#xa8;" horiz-adv-x="259" 
d="M80 487h-72v71h72v-71zM251 487h-72v71h72v-71z" />
    <glyph glyph-name="copyright" unicode="&#xa9;" horiz-adv-x="722" 
d="M686 316q0 -327 -325 -327t-325 327t325 327t325 -327zM624 316q0 130 -51 193q-62 77 -212 77t-212 -77q-50 -63 -50 -193t50 -192q62 -77 212 -77t212 77q51 63 51 192zM461 131q-28 -8 -92 -8q-98 0 -135 49q-31 42 -31 143q0 99 33 143q36 50 125 50q65 0 100 -9
l-3 -47q-39 10 -94 10q-60 0 -81 -29t-21 -118q0 -87 21 -116t86 -29q56 0 89 7z" />
    <glyph glyph-name="ordfeminine" unicode="&#xaa;" horiz-adv-x="1632" 
d="M466 0h-253q-51 0 -83 34q-30 31 -30 74v194q0 43 28 73q32 34 85 34h288v-97h-281v-217h312q-28 -28 -51 -66q-8 -13 -15 -29zM1378 0h-112v316h-143v96h409v-96h-154v-316zM969 293l-80 -15l-26 -6l-37 82l-50 -109q-115 -46 -149 -72l90 190q0 7 16 24q20 22 47 22h93
q27 0 47 -22q16 -17 16 -24l5 -10zM1102 0h-115l-99 219q-154 -76 -210 -219h-160q31 116 228 204q204 92 454 92l-22 -16q-102 0 -192 -24z" />
    <glyph glyph-name="guillemotleft" unicode="&#xab;" horiz-adv-x="433" 
d="M400 25l-175 166v67l175 166v-75l-136 -124l136 -125v-75zM196 25l-175 166v67l175 166v-75l-136 -124l136 -125v-75z" />
    <glyph glyph-name="logicalnot" unicode="&#xac;" horiz-adv-x="420" 
d="M373 179h-74v139h-251v64h325v-203z" />
    <glyph glyph-name="registered" unicode="&#xae;" horiz-adv-x="722" 
d="M686 316q0 -327 -325 -327t-325 327t325 327t325 -327zM624 316q0 130 -51 193q-62 77 -212 77t-212 -77q-50 -63 -50 -193t50 -192q62 -77 212 -77t212 77q51 63 51 192zM486 388q0 -86 -63 -105l95 -153h-66l-88 148h-73v-148h-58v372h149q104 0 104 -114zM427 388
q0 68 -40 68h-96v-132h93q43 0 43 64z" />
    <glyph glyph-name="macron" unicode="&#xaf;" horiz-adv-x="239" 
d="M239 536h-239v47h239v-47z" />
    <glyph glyph-name="degree" unicode="&#xb0;" horiz-adv-x="281" 
d="M259 524q0 -49 -34.5 -84t-84.5 -35q-49 0 -83.5 35t-34.5 84t34.5 84t83.5 35t84 -35t35 -84zM210 524q0 29 -20.5 49t-49.5 20q-28 0 -48.5 -20t-20.5 -49t20 -49.5t49 -20.5t49.5 20.5t20.5 49.5z" />
    <glyph glyph-name="plusminus" unicode="&#xb1;" horiz-adv-x="420" 
d="M243 119h-65v129h-130v65h130v131h65v-131h130v-65h-130v-129zM373 0h-325v65h325v-65z" />
    <glyph glyph-name="twosuperior" unicode="&#xb2;" horiz-adv-x="374" 
d="M296 254h-224v55q0 62 48 101l88 55q48 31 48 71q0 36 -16.5 50t-57.5 14q-57 0 -97 -9v42q52 6 97 6q120 0 120 -103q0 -53 -49 -89l-90 -55q-49 -34 -49 -82v-22h182v-34z" />
    <glyph glyph-name="threesuperior" unicode="&#xb3;" horiz-adv-x="369" 
d="M297 366q0 -111 -126 -111q-60 0 -99 6v40q39 -7 99 -7q43 0 61 16.5t18 55.5q0 38 -14 54t-48 15h-66v37q66 0 66 1q51 0 51 62q0 40 -13 53.5t-55 13.5q-60 0 -99 -7v40q41 7 99 7q113 0 113 -107q0 -54 -37 -76q50 -21 50 -93z" />
    <glyph glyph-name="acute" unicode="&#xb4;" horiz-adv-x="222" 
d="M222 554l-222 -73v50l222 102v-79z" />
    <glyph glyph-name="mu" unicode="&#xb5;" horiz-adv-x="3536" 
d="M2239 112q0 -51 -31.5 -81.5t-84.5 -30.5h-154v316h148q58 0 90 -30.5t32 -80.5v-93zM929 0h-44l-8 30q-19 -34 -52 -34h-37q-45 0 -72.5 24t-27.5 66v68q0 42 25.5 67t70.5 25h33q37 0 56 -30v100h56v-316zM1475 86q0 -41 -27 -65.5t-71 -24.5h-40q-44 0 -71 24.5
t-27 65.5v70q0 41 26.5 65.5t71.5 24.5h40q45 0 71.5 -24.5t26.5 -65.5v-70zM2881 0h-58v172q0 28 -24 28q-20 0 -34 -15t-14 -35v-150h-58v170q0 28 -26 28q-19 0 -34.5 -15.5t-15.5 -40.5v-142h-57v242h45l6 -32q21 36 62 36q45 0 64 -33q20 33 67 33q77 0 77 -74v-172z
M642 0h-43l-5 30q-13 -34 -48 -34h-48q-36 0 -60 21.5t-24 56.5q0 72 84 72h88v24q0 30 -28 30h-52q-26 0 -26 -26h-52q0 72 78 72h52q84 0 84 -76v-170zM2488 0h-111q-42 0 -68 23t-26 61v74q0 39 26 63.5t68 24.5h47q38 0 64 -25t26 -59q0 -37 -16 -70h-159v-8
q0 -36 38 -36h111v-48zM376 96q0 -100 -108 -100h-58q-50 0 -80 28.5t-30 75.5v116q0 48 30 76t80 28h60q106 0 106 -100h-60q0 47 -46 47h-60q-50 0 -50 -51v-116q0 -51 50 -51h58q48 0 48 47h60zM3436 0h-60l-37 92q-10 25 -33 29l-49 -50v-71h-58v316h58v-179l104 105h68
l-88 -91q34 -9 54 -55zM1195 74q0 -35 -23.5 -56.5t-62.5 -21.5h-48q-86 0 -86 82h54q0 -34 32 -34h48q30 0 30 30q0 26 -30 26h-46q-39 0 -62.5 19.5t-23.5 52.5t22 53.5t60 20.5h50q82 0 82 -74h-52q0 28 -30 28h-50q-26 0 -26 -28q0 -26 30 -26h46q86 0 86 -72zM1747 0
h-56v162q0 36 -34 36h-28q-21 0 -36.5 -15.5t-15.5 -40.5v-142h-57v242h45l6 -32q21 36 58 36h28q90 0 90 -84v-162zM2183 112v93q0 60 -66 60h-91v-214h97q60 0 60 61zM873 92v56q0 50 -56 50h-33q-42 0 -42 -44v-68q0 -44 46 -44h37q20 0 34 14.5t14 35.5zM1421 86v70
q0 43 -44 43h-40q-44 0 -44 -43v-70q0 -43 44 -43h40q44 0 44 43zM2457 136q4 9 4 26q0 36 -37 36h-47q-38 0 -38 -40v-22h118zM586 78v24h-88q-34 0 -34 -28q0 -32 34 -32h48q40 0 40 36zM1774 270h-10l-14 24h-10v-24h-8v58h23q19 0 19 -18q0 -13 -15 -16zM1766 310
q0 11 -11 11h-15v-21h15q11 0 11 10zM1800 299q0 -49 -50 -49q-47 0 -47 49t47 49q50 0 50 -49zM1793 299q0 42 -43 42q-40 0 -40 -42t40 -42q43 0 43 42zM3147 0h-43l-5 30q-13 -34 -48 -34h-48q-36 0 -60 21.5t-24 56.5q0 72 84 72h88v24q0 30 -28 30h-52q-26 0 -26 -26
h-52q0 72 78 72h52q84 0 84 -76v-170zM3091 78v24h-88q-34 0 -34 -28q0 -32 34 -32h48q40 0 40 36z" />
    <glyph glyph-name="paragraph" unicode="&#xb6;" horiz-adv-x="543" 
d="M459 -108h-66v679h-79v-679h-66v352h-32q-89 0 -130 47.5t-41 136.5q0 84 46.5 144t127.5 61h283v-62h-43v-679z" />
    <glyph glyph-name="periodcentered" unicode="&#xb7;" horiz-adv-x="208" 
d="M154 257h-100v100h100v-100z" />
    <glyph glyph-name="cedilla" unicode="&#xb8;" horiz-adv-x="167" 
d="M48 -216h-48l85 157h82z" />
    <glyph glyph-name="onesuperior" unicode="&#xb9;" horiz-adv-x="287" 
d="M215 253h-143v34h50v307h-47v38h91v-345h49v-34z" />
    <glyph glyph-name="ordmasculine" unicode="&#xba;" horiz-adv-x="2808" 
d="M566 0h-59v290q53 48 126 48h58v-55h-58q-40 0 -67 -25v-258zM1441 0h-59v261q-34 25 -88 25q-56 0 -87 -25v-261h-60v295q59 47 147 47q91 0 147 -47v-295zM2031 425h-66v78h66v-78zM2028 0h-59v335h59v-335zM2321 -4h-34q-71 0 -112 57v228h-52v54h52v112h59v-112h81
v-54h-81v-205q20 -24 53 -24h34v-56zM2708 -83q-48 -46 -146 -46q-95 0 -147 42v65h59v-34q25 -20 88 -20q55 0 87 24v67q-43 -22 -94 -22q-88 0 -140 52v290h59v-261q34 -25 88 -25q51 0 87 25v261h59v-418zM400 50q-52 -57 -150 -57q-99 0 -150 57v453h59v-423
q33 -31 91 -31q60 0 91 31v175q-31 31 -91 31q-26 0 -52 -7v55q24 8 56 8q91 0 146 -57v-235zM1848 50q-53 -57 -150 -57q-98 0 -150 57v235q55 57 147 57q31 0 55 -8v-55q-26 7 -52 7q-60 0 -91 -31v-175q31 -31 91 -31q58 0 91 31v423h59v-453zM1042 36q-57 -43 -140 -43
q-86 0 -140 43v127q52 42 132 42q32 0 52 -4v-54q-25 5 -44 5q-56 0 -84 -21v-64q32 -20 84 -20q50 0 82 20v201q-31 20 -81 20q-48 0 -78 -17v-38h-60v71q55 38 138 38q85 0 139 -43v-263z" />
    <glyph glyph-name="guillemotright" unicode="&#xbb;" horiz-adv-x="433" 
d="M412 191l-175 -166v75l136 125l-136 124v75l175 -166v-67zM208 191l-175 -166v75l136 125l-136 124v75l175 -166v-67z" />
    <glyph glyph-name="onequarter" unicode="&#xbc;" horiz-adv-x="724" 
d="M607 0h-42v94h-174v36l171 249h45v-249h45v-36h-45v-94zM565 130v183l-128 -183h128zM215 253h-143v34h50v307h-47v38h91v-345h49v-34zM228 0h-48l275 632h50z" />
    <glyph glyph-name="onehalf" unicode="&#xbd;" horiz-adv-x="749" 
d="M215 253h-143v34h50v307h-47v38h91v-345h49v-34zM228 0h-48l275 632h50zM670 0h-224v55q0 62 48 101l88 55q48 31 48 71q0 36 -16.5 50t-57.5 14q-57 0 -97 -9v42q52 6 97 6q120 0 120 -103q0 -53 -49 -89l-90 -55q-49 -34 -49 -82v-22h182v-34z" />
    <glyph glyph-name="threequarters" unicode="&#xbe;" horiz-adv-x="762" 
d="M646 0h-42v94h-175v36l172 249h45v-249h44v-36h-44v-94zM604 130v183l-128 -183h128zM266 0h-47l275 632h50zM297 366q0 -111 -126 -111q-60 0 -99 6v40q39 -7 99 -7q43 0 61 16.5t18 55.5q0 38 -14 54t-48 15h-66v37q66 0 66 1q51 0 51 62q0 40 -13 53.5t-55 13.5
q-60 0 -99 -7v40q41 7 99 7q113 0 113 -107q0 -54 -37 -76q50 -21 50 -93z" />
    <glyph glyph-name="questiondown" unicode="&#xbf;" horiz-adv-x="395" 
d="M359 -27q-63 -20 -144 -20q-80 0 -129.5 39.5t-49.5 109.5q0 75 40 123q13 17 74 65q40 35 40 77v63h70v-72q0 -57 -39 -95l-74 -62q-39 -40 -39 -99q0 -86 112 -86q83 0 139 23v-66zM270 506h-93v90h93v-90z" />
    <glyph glyph-name="Agrave" unicode="&#xc0;" horiz-adv-x="547" 
d="M535 0h-84l-61 186h-233l-61 -186h-84l221 632h81zM370 247l-96 292l-97 -292h193zM348 691l-222 82v74l222 -102v-54z" />
    <glyph glyph-name="Aacute" unicode="&#xc1;" horiz-adv-x="547" 
d="M157 186l-61 -186h-84l221 632h81l221 -632h-84l-61 186h-233zM370 247l-96 292l-97 -292h193zM391 769l-222 -73v49l222 102v-78z" />
    <glyph glyph-name="Acircumflex" unicode="&#xc2;" horiz-adv-x="547" 
d="M157 186l-61 -186h-84l221 632h81l221 -632h-84l-61 186h-233zM370 247l-96 292l-97 -292h193zM419 680l-145 78l-136 -78v51l136 92l145 -94v-49z" />
    <glyph glyph-name="Atilde" unicode="&#xc3;" horiz-adv-x="527" 
d="M157 186l-61 -186h-84l221 632h81l221 -632h-84l-61 186h-233zM370 247l-96 292l-97 -292h193zM400 733q-14 -9 -34.5 -15t-44.5 -6q-18 0 -30.5 5.5t-25 12.5t-26.5 12.5t-33 5.5q-23 0 -44 -9.5t-36 -22.5v60l38.5 17.5t41.5 9.5q25 0 40.5 -5.5t27.5 -12.5t22.5 -12.5
t24.5 -5.5q22 0 42 8.5t37 20.5v-63z" />
    <glyph glyph-name="Aring" unicode="&#xc5;" horiz-adv-x="547" 
d="M355 770q0 -38 -24 -59.5t-62 -21.5q-37 0 -61 21.5t-24 59.5q0 39 24 60t61 21q38 0 62 -21t24 -60zM314 770q0 44 -45 44t-45 -44t45 -44t45 44zM157 186l-61 -186h-84l221 632h81l221 -632h-84l-61 186h-233zM370 247l-96 292l-97 -292h193z" />
    <glyph glyph-name="AE" unicode="&#xc6;" horiz-adv-x="794" 
d="M395 0v184h-204l-99 -184h-80l341 632h396v-65h-278v-207h239v-65h-239v-230h278v-65h-354zM395 565l-171 -319h171v319z" />
    <glyph glyph-name="Ccedilla" unicode="&#xc7;" horiz-adv-x="505" 
d="M228 -216h-48l85 157h82zM67 313q0 99 9.5 163t37 101t76.5 51.5t127 14.5q41 0 79 -3.5t64 -8.5v-67q-12 3 -30.5 5.5t-38.5 4.5t-39.5 3t-34.5 1q-57 0 -91 -8.5t-52.5 -36.5t-24 -80t-5.5 -140t5.5 -140t24 -79.5t52.5 -36t91 -8.5q15 0 34.5 1t39.5 3l38.5 4t30.5 5
v-67q-12 -2 -29.5 -4t-37 -3.5t-39 -2.5t-37.5 -1q-81 0 -130 17.5t-75.5 56.5t-35.5 102t-9 153z" />
    <glyph glyph-name="Egrave" unicode="&#xc8;" horiz-adv-x="478" 
d="M79 0v632h354v-65h-278v-207h239v-65h-239v-230h278v-65h-354zM337 691l-223 82v74l223 -102v-54z" />
    <glyph glyph-name="Eacute" unicode="&#xc9;" horiz-adv-x="478" 
d="M79 0v632h354v-65h-278v-207h239v-65h-239v-230h278v-65h-354zM391 769l-222 -73v49l222 102v-78z" />
    <glyph glyph-name="Ecircumflex" unicode="&#xca;" horiz-adv-x="478" 
d="M79 0v632h354v-65h-278v-207h239v-65h-239v-230h278v-65h-354zM400 680l-145 78l-137 -78v51l137 92l145 -94v-49z" />
    <glyph glyph-name="Igrave" unicode="&#xcc;" horiz-adv-x="238" 
d="M81 0v632h76v-632h-76zM212 691l-222 82v74l222 -102v-54z" />
    <glyph glyph-name="Iacute" unicode="&#xcd;" horiz-adv-x="238" 
d="M81 0v632h76v-632h-76zM259 769l-222 -73v49l222 102v-78z" />
    <glyph glyph-name="Icircumflex" unicode="&#xce;" horiz-adv-x="242" 
d="M81 0v632h76v-632h-76zM262 680l-145 78l-137 -78v51l137 92l145 -94v-49z" />
    <glyph glyph-name="Eth" unicode="&#xd0;" horiz-adv-x="584" 
d="M-1 292v64h80v276h207q144 0 189 -64q42 -60 42 -253q0 -187 -46 -251t-180 -64h-212v292h-80zM440 316q0 120 -11 170.5t-44 67.5q-27 13 -98 13h-132v-211h155v-64h-155v-227h135q97 0 123.5 43t26.5 208z" />
    <glyph glyph-name="Ntilde" unicode="&#xd1;" horiz-adv-x="599" 
d="M445 0l-290 485v-485h-76v632h76l290 -491v491h75v-632h-75zM427 738q-14 -9 -34.5 -15t-44.5 -6q-18 0 -30.5 5.5t-25 12.5t-26.5 12.5t-33 5.5q-23 0 -44 -9.5t-36 -21.5v59q17 9 38.5 18t41.5 9q25 0 40.5 -5.5t27.5 -12.5t22.5 -12.5t24.5 -5.5q22 0 42 9t37 21v-64z
" />
    <glyph glyph-name="Ograve" unicode="&#xd2;" horiz-adv-x="594" 
d="M299 643q66 0 111 -18t72.5 -57t39 -101t11.5 -151q0 -90 -11.5 -152.5t-39 -101t-72.5 -56t-111 -17.5q-67 0 -112 17.5t-72 56t-38.5 101t-11.5 152.5q0 89 11.5 151t38.5 101t72 57t112 18zM299 56q48 0 78.5 10t47.5 38.5t23.5 79.5t6.5 132q0 79 -6.5 130
t-23.5 79.5t-47.5 39.5t-78.5 11t-78.5 -11t-48 -39.5t-24 -79.5t-6.5 -130q0 -81 6.5 -132t24 -79.5t48 -38.5t78.5 -10zM393 691l-222 82v74l222 -102v-54z" />
    <glyph glyph-name="Oacute" unicode="&#xd3;" horiz-adv-x="598" 
d="M430 769l-222 -73v49l222 102v-78zM299 643q66 0 111 -18t72.5 -57t39 -101t11.5 -151q0 -90 -11.5 -152.5t-39 -101t-72.5 -56t-111 -17.5q-67 0 -112 17.5t-72 56t-38.5 101t-11.5 152.5q0 89 11.5 151t38.5 101t72 57t112 18zM299 56q48 0 78.5 10t47.5 38.5
t23.5 79.5t6.5 132q0 79 -6.5 130t-23.5 79.5t-47.5 39.5t-78.5 11t-78.5 -11t-48 -39.5t-24 -79.5t-6.5 -130q0 -81 6.5 -132t24 -79.5t48 -38.5t78.5 -10z" />
    <glyph glyph-name="Ocircumflex" unicode="&#xd4;" horiz-adv-x="598" 
d="M299 643q66 0 111 -18t72.5 -57t39 -101t11.5 -151q0 -90 -11.5 -152.5t-39 -101t-72.5 -56t-111 -17.5q-67 0 -112 17.5t-72 56t-38.5 101t-11.5 152.5q0 89 11.5 151t38.5 101t72 57t112 18zM299 56q48 0 78.5 10t47.5 38.5t23.5 79.5t6.5 132q0 79 -6.5 130
t-23.5 79.5t-47.5 39.5t-78.5 11t-78.5 -11t-48 -39.5t-24 -79.5t-6.5 -130q0 -81 6.5 -132t24 -79.5t48 -38.5t78.5 -10zM445 680l-145 78l-137 -78v51l137 92l145 -94v-49z" />
    <glyph glyph-name="Otilde" unicode="&#xd5;" horiz-adv-x="598" 
d="M299 643q66 0 111 -18t72.5 -57t39 -101t11.5 -151q0 -90 -11.5 -152.5t-39 -101t-72.5 -56t-111 -17.5q-67 0 -112 17.5t-72 56t-38.5 101t-11.5 152.5q0 89 11.5 151t38.5 101t72 57t112 18zM299 56q48 0 78.5 10t47.5 38.5t23.5 79.5t6.5 132q0 79 -6.5 130
t-23.5 79.5t-47.5 39.5t-78.5 11t-78.5 -11t-48 -39.5t-24 -79.5t-6.5 -130q0 -81 6.5 -132t24 -79.5t48 -38.5t78.5 -10zM436 733q-14 -9 -34 -15t-44 -6q-18 0 -31 5.5t-25 12.5t-26 12.5t-33 5.5q-23 0 -44 -9.5t-36 -22.5v60q16 8 38 17.5t42 9.5q25 0 40.5 -5.5
t27 -12.5t22 -12.5t25.5 -5.5q22 0 42 8.5t36 20.5v-63z" />
    <glyph glyph-name="multiply" unicode="&#xd7;" horiz-adv-x="420" 
d="M302 143l-92 92l-92 -92l-46 46l93 92l-93 92l46 45l93 -91l91 91l46 -45l-92 -92l92 -92z" />
    <glyph glyph-name="Oslash" unicode="&#xd8;" horiz-adv-x="601" 
d="M122 55q-30 38 -42.5 102t-12.5 159q0 89 11.5 151t38.5 101t72 57t112 18q82 0 135 -30l34 59h64l-55 -98q29 -38 42.5 -101.5t13.5 -156.5q0 -90 -11.5 -152.5t-39 -101t-72.5 -56t-111 -17.5q-87 0 -136 29l-33 -59h-64zM144 316q0 -66 4 -112.5t15 -75.5l239 425
q-17 13 -42 18t-59 5q-48 0 -78.5 -11t-48 -39.5t-24 -79.5t-6.5 -130zM301 56q48 0 78 10t47.5 38.5t24 79.5t6.5 132q0 65 -4.5 110.5t-15.5 74.5l-238 -424q17 -12 42 -16.5t60 -4.5z" />
    <glyph glyph-name="Ugrave" unicode="&#xd9;" horiz-adv-x="578" 
d="M289 -11q-60 0 -101.5 16t-66.5 45t-36 69t-11 89v424h75v-424q0 -41 7 -70t23.5 -47t43.5 -26.5t66 -8.5t65.5 8.5t43 26.5t23.5 47t7 70v424h76v-424q0 -49 -11 -89t-36 -69t-66.5 -45t-101.5 -16zM383 691l-222 82v74l222 -102v-54z" />
    <glyph glyph-name="Uacute" unicode="&#xda;" horiz-adv-x="578" 
d="M430 769l-222 -73v49l222 102v-78zM289 -11q-60 0 -101.5 16t-66.5 45t-36 69t-11 89v424h75v-424q0 -41 7 -70t23.5 -47t43.5 -26.5t66 -8.5t65.5 8.5t43 26.5t23.5 47t7 70v424h76v-424q0 -49 -11 -89t-36 -69t-66.5 -45t-101.5 -16z" />
    <glyph glyph-name="Ucircumflex" unicode="&#xdb;" horiz-adv-x="578" 
d="M289 -11q-60 0 -101.5 16t-66.5 45t-36 69t-11 89v424h75v-424q0 -41 7 -70t23.5 -47t43.5 -26.5t66 -8.5t65.5 8.5t43 26.5t23.5 47t7 70v424h76v-424q0 -49 -11 -89t-36 -69t-66.5 -45t-101.5 -16zM435 680l-145 78l-142 -78v51l142 92l145 -94v-49z" />
    <glyph glyph-name="Yacute" unicode="&#xdd;" horiz-adv-x="493" 
d="M284 242v-242h-75v240l-202 392h81l160 -314l157 314h81zM393 756l-222 -73v50l222 101v-78z" />
    <glyph glyph-name="Thorn" unicode="&#xde;" horiz-adv-x="511" 
d="M471 283q0 -90 -44 -137.5t-135 -47.5h-137v-98h-76v632h76v-137h137q59 0 94.5 -16.5t54 -45.5t24.5 -67.5t6 -82.5zM393 292q0 38 -3.5 64.5t-14 43t-28.5 23.5t-48 7h-144v-267h133q31 0 51.5 6.5t32.5 21.5t16.5 39.5t4.5 61.5z" />
    <glyph glyph-name="germandbls" unicode="&#xdf;" horiz-adv-x="516" 
d="M498 117q0 -70 -40.5 -99t-120.5 -29q-26 0 -55.5 3t-52.5 7v60q8 -2 22.5 -4l30 -4t30.5 -3.5t25 -1.5q48 0 70 16t22 54q0 25 -14.5 41t-36.5 27.5t-47 21.5t-47 23.5t-36.5 33.5t-14.5 52q0 34 18.5 59.5t41 47t41.5 41.5t19 43q0 80 -102 80q-57 0 -82 -28.5
t-25 -82.5v-475h-72v475q0 84 44.5 126t131.5 42q88 0 131 -38.5t43 -98.5q0 -35 -19 -60t-41.5 -46l-41.5 -40t-19 -42q0 -20 14.5 -32.5t36.5 -22.5t47.5 -20t47.5 -25.5t36.5 -39t14.5 -61.5z" />
    <glyph glyph-name="agrave" unicode="&#xe0;" horiz-adv-x="445" 
d="M375 0h-63l-9 39q-27 -20 -63.5 -34t-63.5 -14q-63 0 -98 35.5t-35 100.5q0 76 42.5 109.5t116.5 33.5h101v47q0 11 -3 22.5t-11.5 21t-23 15.5t-38.5 6q-38 0 -76.5 -2t-65.5 -7v60q38 5 77.5 6.5t70.5 1.5q72 0 107 -35.5t35 -101.5v-304zM303 212h-105
q-44 0 -64 -19.5t-20 -65.5q0 -39 19 -58.5t45 -19.5q15 0 32.5 4.5t34.5 12t32 16.5t26 18v112zM303 473l-222 82v74l222 -102v-54z" />
    <glyph glyph-name="aacute" unicode="&#xe1;" horiz-adv-x="445" 
d="M375 0h-63l-9 39q-27 -20 -63.5 -34t-63.5 -14q-63 0 -98 35.5t-35 100.5q0 76 42.5 109.5t116.5 33.5h101v47q0 11 -3 22.5t-11.5 21t-23 15.5t-38.5 6q-38 0 -76.5 -2t-65.5 -7v60q38 5 77.5 6.5t70.5 1.5q72 0 107 -35.5t35 -101.5v-304zM303 212h-105
q-44 0 -64 -19.5t-20 -65.5q0 -39 19 -58.5t45 -19.5q15 0 32.5 4.5t34.5 12t32 16.5t26 18v112zM348 554l-222 -73v50l222 102v-79z" />
    <glyph glyph-name="acircumflex" unicode="&#xe2;" horiz-adv-x="445" 
d="M375 0h-63l-9 39q-27 -20 -63.5 -34t-63.5 -14q-63 0 -98 35.5t-35 100.5q0 76 42.5 109.5t116.5 33.5h101v47q0 11 -3 22.5t-11.5 21t-23 15.5t-38.5 6q-38 0 -76.5 -2t-65.5 -7v60q38 5 77.5 6.5t70.5 1.5q72 0 107 -35.5t35 -101.5v-304zM303 212h-105
q-44 0 -64 -19.5t-20 -65.5q0 -39 19 -58.5t45 -19.5q15 0 32.5 4.5t34.5 12t32 16.5t26 18v112zM362 481l-145 78l-137 -78v51l137 93l145 -95v-49z" />
    <glyph glyph-name="atilde" unicode="&#xe3;" horiz-adv-x="445" 
d="M375 0h-63l-9 39q-27 -20 -63.5 -34t-63.5 -14q-63 0 -98 35.5t-35 100.5q0 76 42.5 109.5t116.5 33.5h101v47q0 11 -3 22.5t-11.5 21t-23 15.5t-38.5 6q-38 0 -76.5 -2t-65.5 -7v60q38 5 77.5 6.5t70.5 1.5q72 0 107 -35.5t35 -101.5v-304zM303 212h-105
q-44 0 -64 -19.5t-20 -65.5q0 -39 19 -58.5t45 -19.5q15 0 32.5 4.5t34.5 12t32 16.5t26 18v112zM352 533q-14 -9 -34.5 -15t-43.5 -6q-18 0 -31 5.5t-25 12.5t-26 12.5t-34 5.5q-23 0 -44 -9.5t-36 -21.5v59q17 9 38.5 18t41.5 9q25 0 40.5 -5.5t27.5 -12.5t22.5 -12.5
t25.5 -5.5q21 0 41 8.5t37 21.5v-64z" />
    <glyph glyph-name="aring" unicode="&#xe5;" horiz-adv-x="445" 
d="M375 0h-63l-9 39q-27 -20 -63.5 -34t-63.5 -14q-63 0 -98 35.5t-35 100.5q0 76 42.5 109.5t116.5 33.5h101v47q0 11 -3 22.5t-11.5 21t-23 15.5t-38.5 6q-38 0 -76.5 -2t-65.5 -7v60q38 5 77.5 6.5t70.5 1.5q72 0 107 -35.5t35 -101.5v-304zM303 212h-105
q-44 0 -64 -19.5t-20 -65.5q0 -39 19 -58.5t45 -19.5q15 0 32.5 4.5t34.5 12t32 16.5t26 18v112zM297 562q0 -38 -24 -59.5t-62 -21.5q-37 0 -61 21.5t-24 59.5q0 39 24 60t61 21q38 0 62 -21t24 -60zM256 562q0 45 -45 45t-45 -45q0 -44 45 -44t45 44z" />
    <glyph glyph-name="ae" unicode="&#xe6;" horiz-adv-x="699" 
d="M334 56q-35 -30 -85 -49q-42 -16 -73 -16q-63 0 -98 36t-35 100q0 133 159 133h101v57q0 65 -76 65q-88 0 -142 -9v60q67 8 148 8q79 0 118 -50q38 50 131 50q94 0 129 -46.5t35 -173.5v-23h-273q2 -94 25 -122t88 -28q83 0 147 12v-61q-73 -10 -147 -10q-117 0 -152 67z
M303 202h-105q-45 0 -64.5 -16.5t-19.5 -58.5q0 -37 18.5 -57.5t45.5 -20.5q30 0 70 16t67 38q-12 60 -12 99zM374 258h199q0 76 -19.5 101t-71.5 25q-65 0 -88 -34q-17 -25 -20 -92z" />
    <glyph glyph-name="ccedilla" unicode="&#xe7;" horiz-adv-x="406" 
d="M367 -5q-23 -3 -50 -4.5t-61 -1.5q-56 0 -94 13.5t-61 41.5t-33 71.5t-10 104.5q0 115 44.5 168t148.5 53q32 0 56.5 -1t56.5 -4v-61q-26 4 -56 5t-57 1q-35 0 -58 -8t-37 -27t-20 -49.5t-6 -76.5q0 -52 7.5 -85.5t23 -52.5t39.5 -26.5t56 -7.5q24 0 55.5 1t55.5 6v-60z
M174 -216h-48l85 157h82z" />
    <glyph glyph-name="egrave" unicode="&#xe8;" horiz-adv-x="457" 
d="M404 189h-273q1 -45 7.5 -73t19 -43t33.5 -20t53 -5q36 0 75.5 3t71.5 9v-61q-33 -5 -72.5 -7.5t-74.5 -2.5q-48 0 -83 11t-57.5 37t-33 70.5t-10.5 112.5q0 61 10.5 103t32.5 68t56 38t81 12q49 0 81 -11t50.5 -37t25.5 -70t7 -111v-23zM331 249q0 43 -5 69.5t-16 41
t-28 19.5t-42 5q-31 0 -51.5 -7t-32.5 -22.5t-17.5 -41.5t-6.5 -64h199zM331 473l-222 82v74l222 -102v-54z" />
    <glyph glyph-name="eacute" unicode="&#xe9;" horiz-adv-x="457" 
d="M404 189h-273q1 -45 7.5 -73t19 -43t33.5 -20t53 -5q36 0 75.5 3t71.5 9v-61q-33 -5 -72.5 -7.5t-74.5 -2.5q-48 0 -83 11t-57.5 37t-33 70.5t-10.5 112.5q0 61 10.5 103t32.5 68t56 38t81 12q49 0 81 -11t50.5 -37t25.5 -70t7 -111v-23zM331 249q0 43 -5 69.5t-16 41
t-28 19.5t-42 5q-31 0 -51.5 -7t-32.5 -22.5t-17.5 -41.5t-6.5 -64h199zM375 554l-222 -73v50l222 102v-79z" />
    <glyph glyph-name="ecircumflex" unicode="&#xea;" horiz-adv-x="457" 
d="M404 189h-273q1 -45 7.5 -73t19 -43t33.5 -20t53 -5q36 0 75.5 3t71.5 9v-61q-33 -5 -72.5 -7.5t-74.5 -2.5q-48 0 -83 11t-57.5 37t-33 70.5t-10.5 112.5q0 61 10.5 103t32.5 68t56 38t81 12q49 0 81 -11t50.5 -37t25.5 -70t7 -111v-23zM331 249q0 43 -5 69.5t-16 41
t-28 19.5t-42 5q-31 0 -51.5 -7t-32.5 -22.5t-17.5 -41.5t-6.5 -64h199zM382 481l-145 78l-137 -78v51l137 93l145 -95v-49z" />
    <glyph glyph-name="igrave" unicode="&#xec;" horiz-adv-x="234" 
d="M81 0v430h72v-430h-72zM212 473l-222 82v74l222 -102v-54z" />
    <glyph glyph-name="iacute" unicode="&#xed;" horiz-adv-x="234" 
d="M81 0v430h72v-430h-72zM239 554l-222 -73v50l222 102v-79z" />
    <glyph glyph-name="icircumflex" unicode="&#xee;" horiz-adv-x="235" 
d="M81 0v430h72v-430h-72zM258 481l-145 78l-136 -78v51l136 93l145 -95v-49z" />
    <glyph glyph-name="eth" unicode="&#xf0;" horiz-adv-x="499" 
d="M438 215q0 -119 -42 -171q-43 -55 -147 -55q-103 0 -147 55q-42 52 -42 171t43 172.5t146 53.5q47 0 83 -14q-18 51 -69 120l-94 -45l-19 40l86 41q-21 26 -55 60h75q9 -8 33 -34l69 34l19 -41l-58 -28q119 -163 119 -358v-1zM366 215q0 102 -27 137q-23 30 -90 30
q-66 0 -90 -30q-27 -35 -27 -137t27 -137q24 -30 90 -30q67 0 90 30q27 35 27 137z" />
    <glyph glyph-name="ntilde" unicode="&#xf1;" horiz-adv-x="478" 
d="M145 0h-72v430h57l14 -36q31 23 69 35t78 12q53 0 85.5 -32t32.5 -89v-320h-72v320q0 31 -16 46.5t-41 15.5q-31 0 -68.5 -14t-66.5 -36v-332zM373 533q-14 -9 -34 -15t-44 -6q-18 0 -31 5.5t-25 12.5t-26 12.5t-33 5.5q-23 0 -44 -9.5t-36 -21.5v59q16 9 38 18t42 9
q25 0 40.5 -5.5t27 -12.5t22 -12.5t25.5 -5.5q22 0 42 8.5t36 21.5v-64z" />
    <glyph glyph-name="ograve" unicode="&#xf2;" horiz-adv-x="495" 
d="M247 441q57 0 93.5 -13.5t57.5 -41.5t29.5 -70.5t8.5 -100.5q0 -62 -9 -105t-31 -70t-58.5 -39t-90.5 -12t-90.5 12t-58 39t-31 70t-9.5 105q0 58 8.5 100.5t30 70.5t58 41.5t92.5 13.5zM247 48q34 0 57 5.5t36 22.5t18.5 50t5.5 89q0 53 -4.5 86t-17.5 51t-35.5 24
t-59.5 6q-36 0 -59 -6t-36 -24t-17.5 -51t-4.5 -86q0 -56 5.5 -89t19 -50t36 -22.5t56.5 -5.5zM339 473l-222 82v74l222 -102v-54z" />
    <glyph glyph-name="oacute" unicode="&#xf3;" horiz-adv-x="495" 
d="M247 441q57 0 93.5 -13.5t57.5 -41.5t29.5 -70.5t8.5 -100.5q0 -62 -9 -105t-31 -70t-58.5 -39t-90.5 -12t-90.5 12t-58 39t-31 70t-9.5 105q0 58 8.5 100.5t30 70.5t58 41.5t92.5 13.5zM247 48q34 0 57 5.5t36 22.5t18.5 50t5.5 89q0 53 -4.5 86t-17.5 51t-35.5 24
t-59.5 6q-36 0 -59 -6t-36 -24t-17.5 -51t-4.5 -86q0 -56 5.5 -89t19 -50t36 -22.5t56.5 -5.5zM384 554l-222 -73v50l222 102v-79z" />
    <glyph glyph-name="ocircumflex" unicode="&#xf4;" horiz-adv-x="495" 
d="M247 441q57 0 93.5 -13.5t57.5 -41.5t29.5 -70.5t8.5 -100.5q0 -62 -9 -105t-31 -70t-58.5 -39t-90.5 -12t-90.5 12t-58 39t-31 70t-9.5 105q0 58 8.5 100.5t30 70.5t58 41.5t92.5 13.5zM247 48q34 0 57 5.5t36 22.5t18.5 50t5.5 89q0 53 -4.5 86t-17.5 51t-35.5 24
t-59.5 6q-36 0 -59 -6t-36 -24t-17.5 -51t-4.5 -86q0 -56 5.5 -89t19 -50t36 -22.5t56.5 -5.5zM392 481l-145 78l-136 -78v51l136 93l145 -95v-49z" />
    <glyph glyph-name="otilde" unicode="&#xf5;" horiz-adv-x="495" 
d="M247 441q57 0 93.5 -13.5t57.5 -41.5t29.5 -70.5t8.5 -100.5q0 -62 -9 -105t-31 -70t-58.5 -39t-90.5 -12t-90.5 12t-58 39t-31 70t-9.5 105q0 58 8.5 100.5t30 70.5t58 41.5t92.5 13.5zM247 48q34 0 57 5.5t36 22.5t18.5 50t5.5 89q0 53 -4.5 86t-17.5 51t-35.5 24
t-59.5 6q-36 0 -59 -6t-36 -24t-17.5 -51t-4.5 -86q0 -56 5.5 -89t19 -50t36 -22.5t56.5 -5.5zM383 533q-14 -9 -34 -15t-44 -6q-18 0 -31 5.5t-25 12.5t-26 12.5t-33 5.5q-23 0 -44 -9.5t-36 -21.5v59q16 9 38 18t42 9q25 0 40.5 -5.5t27 -12.5t22 -12.5t25.5 -5.5
q22 0 42 8.5t36 21.5v-64z" />
    <glyph glyph-name="divide" unicode="&#xf7;" horiz-adv-x="420" 
d="M257 405q0 -25 -10.5 -37t-35.5 -12q-26 0 -36.5 12t-10.5 37t10.5 36.5t36.5 11.5q25 0 35.5 -11.5t10.5 -36.5zM48 248v65h325v-65h-325zM257 157q0 -25 -10.5 -36.5t-35.5 -11.5q-26 0 -36.5 11.5t-10.5 36.5q0 26 10.5 37t36.5 11q25 0 35.5 -11t10.5 -37z" />
    <glyph glyph-name="oslash" unicode="&#xf8;" horiz-adv-x="499" 
d="M106 33q-25 26 -35.5 71t-10.5 111q0 58 8.5 100.5t30 70.5t58 41.5t92.5 13.5q64 0 101 -17l35 56h53l-50 -80q29 -28 39.5 -73.5t10.5 -111.5q0 -62 -9 -105t-31 -70t-58.5 -39t-90.5 -12q-66 0 -106 18l-30 -48h-53zM249 48q34 0 57 5.5t36 22.5t18.5 50t5.5 89
q0 45 -3 75.5t-12 49.5l-176 -281q14 -8 32 -9.5t42 -1.5zM132 215q0 -43 3 -71.5t10 -48.5l173 278q-13 5 -29.5 7t-39.5 2q-36 0 -59 -6t-36 -24t-17.5 -51t-4.5 -86z" />
    <glyph glyph-name="ugrave" unicode="&#xf9;" horiz-adv-x="474" 
d="M69 430h72v-278q0 -33 3.5 -53.5t11.5 -31.5t20.5 -14.5t31.5 -3.5q15 0 31.5 4.5t33 12t31 16.5t25.5 18v330h72v-430h-57l-12 39q-13 -11 -29.5 -19.5t-33.5 -15.5t-33.5 -10.5t-29.5 -3.5q-39 0 -65 7t-42 25.5t-23 50t-7 80.5v277zM319 473l-222 82v74l222 -102v-54z
" />
    <glyph glyph-name="uacute" unicode="&#xfa;" horiz-adv-x="474" 
d="M69 430h72v-278q0 -33 3.5 -53.5t11.5 -31.5t20.5 -14.5t31.5 -3.5q15 0 31.5 4.5t33 12t31 16.5t25.5 18v330h72v-430h-57l-12 39q-13 -11 -29.5 -19.5t-33.5 -15.5t-33.5 -10.5t-29.5 -3.5q-39 0 -65 7t-42 25.5t-23 50t-7 80.5v277zM375 554l-222 -73v50l222 102v-79z
" />
    <glyph glyph-name="ucircumflex" unicode="&#xfb;" horiz-adv-x="474" 
d="M69 430h72v-278q0 -33 3.5 -53.5t11.5 -31.5t20.5 -14.5t31.5 -3.5q15 0 31.5 4.5t33 12t31 16.5t25.5 18v330h72v-430h-57l-12 39q-13 -11 -29.5 -19.5t-33.5 -15.5t-33.5 -10.5t-29.5 -3.5q-39 0 -65 7t-42 25.5t-23 50t-7 80.5v277zM378 481l-145 78l-137 -78v51
l137 93l145 -95v-49z" />
    <glyph glyph-name="yacute" unicode="&#xfd;" horiz-adv-x="409" 
d="M403 430l-229 -610h-78l76 192l-167 418h84l120 -324l114 324h80zM357 554l-222 -73v50l222 102v-79z" />
    <glyph glyph-name="thorn" unicode="&#xfe;" horiz-adv-x="498" 
d="M364 211q0 52 -4.5 85t-14 52t-25.5 26.5t-39 7.5q-34 0 -71 -13.5t-66 -34.5v-273q9 -2 23 -4.5t29.5 -4.5t31 -3t27.5 -1q29 0 50 6t34 23.5t19 49.5t6 84zM144 394q24 18 63.5 32.5t76.5 14.5q42 0 71 -12.5t47.5 -40t26.5 -71t8 -105.5q0 -65 -10.5 -108t-33 -68.5
t-57.5 -36.5t-83 -11q-25 0 -56.5 4.5t-52.5 9.5v-182h-71v812h70z" />
    <glyph glyph-name="dotlessi" unicode="&#x131;" horiz-adv-x="218" 
d="M145 0h-72v430h72v-430z" />
    <glyph glyph-name="Lslash" unicode="&#x141;" horiz-adv-x="433" 
d="M410 0h-331v290l-70 -46v76l70 46v266h76v-215l142 93v-76l-142 -94v-275h255v-65z" />
    <glyph glyph-name="lslash" unicode="&#x142;" horiz-adv-x="218" 
d="M218 387l-73 -49v-338h-72v291l-73 -49v72l73 49v269h72v-222l73 49v-72z" />
    <glyph glyph-name="OE" unicode="&#x152;" horiz-adv-x="796" 
d="M751 0h-353q-55 -11 -101 -11q-127 0 -181 86q-49 76 -49 241t49 242q54 85 181 85q46 0 101 -11h353v-65h-278v-207h240v-65h-240v-230h278v-65zM398 73v486q-39 17 -101 17q-92 0 -124 -61q-29 -54 -29 -199t29 -199q32 -61 124 -61q62 0 101 17z" />
    <glyph glyph-name="oe" unicode="&#x153;" horiz-adv-x="763" 
d="M697 -1q-73 -10 -147 -10q-106 0 -149 62q-43 -62 -154 -62q-107 0 -148 50t-41 176q0 121 38 171q42 55 151 55q110 0 154 -65q45 65 145 65q98 0 131 -47t33 -182v-23h-273q3 -88 27 -116q21 -25 86 -25q83 0 147 12v-61zM364 215q0 106 -21.5 136.5t-95.5 30.5
q-73 0 -95 -30.5t-22 -136.5q0 -107 24 -139q22 -28 93 -28q72 0 94.5 29.5t22.5 137.5zM637 249q0 83 -21 111q-18 24 -70 24q-66 0 -89 -38q-16 -26 -19 -97h199z" />
    <glyph glyph-name="Scaron" unicode="&#x160;" horiz-adv-x="470" 
d="M431 168q0 -179 -202 -179q-93 0 -167 14v71q79 -17 167 -17q125 0 125 111q0 74 -81 109l-150 56q-81 44 -81 139q0 171 194 171q67 0 162 -11v-70q-66 14 -162 14q-67 0 -91.5 -22t-24.5 -82q0 -62 81 -92q148 -55 149 -56q81 -49 81 -156zM373 778l-136 -95l-145 97
v49l145 -80l136 80v-51z" />
    <glyph glyph-name="scaron" unicode="&#x161;" horiz-adv-x="382" 
d="M346 111q0 -68 -38.5 -95t-124.5 -27q-63 0 -133 9v64q54 -14 134 -14q48 0 69.5 13.5t21.5 49.5q0 29 -14.5 41t-74.5 33q-96 33 -121 57.5t-25 85.5q0 113 154 113q70 0 128 -8v-60q-55 9 -128 9q-49 0 -67 -12.5t-18 -41.5q0 -31 22 -46q9 -6 53 -21q106 -36 134 -63
t28 -87zM327 576l-137 -95l-145 97v48l145 -80l137 80v-50z" />
    <glyph glyph-name="Zcaron" unicode="&#x17d;" horiz-adv-x="496" 
d="M463 0h-432v58l341 507h-333v67h424v-58l-338 -507h338v-67zM381 778l-137 -95l-145 97v49l145 -80l137 80v-51z" />
    <glyph glyph-name="zcaron" unicode="&#x17e;" horiz-adv-x="404" 
d="M360 0h-329v49l245 324h-229v57h316v-49l-246 -324h243v-57zM345 576l-137 -95l-145 97v48l145 -80l137 80v-50z" />
    <glyph glyph-name="florin" unicode="&#x192;" horiz-adv-x="366" 
d="M180 -10q-5 -86 -54 -136q-52 -51 -142 -51h-30l5 57q2 0 6 -1h7q130 0 138 132l19 311h-92l4 54h91l7 100q14 193 207 193q9 0 29 -2l-4 -57q-20 5 -37 5q-117 0 -125 -129l-7 -110q43 0 117 2l-5 -59q-2 0 -115 3z" />
    <glyph glyph-name="circumflex" unicode="&#x2c6;" horiz-adv-x="282" 
d="M282 481l-145 78l-137 -78v51l137 93l145 -95v-49z" />
    <glyph glyph-name="caron" unicode="&#x2c7;" horiz-adv-x="282" 
d="M282 576l-137 -95l-145 97v48l145 -80l137 80v-50z" />
    <glyph glyph-name="breve" unicode="&#x2d8;" horiz-adv-x="243" 
d="M243 602v-25q0 -44 -25.5 -70t-96.5 -26q-35 0 -58.5 7t-37.5 19.5t-19.5 30t-5.5 39.5v25h51v-30q0 -9 2.5 -17t10 -14t21 -10t36.5 -4t37 4t21.5 10t10 14t2.5 17v30h51z" />
    <glyph glyph-name="dotaccent" unicode="&#x2d9;" horiz-adv-x="104" 
d="M88 487h-72v71h72v-71z" />
    <glyph glyph-name="ring" unicode="&#x2da;" horiz-adv-x="171" 
d="M171 562q0 -38 -24 -59.5t-62 -21.5q-37 0 -61 21.5t-24 59.5q0 39 24 60t61 21q38 0 62 -21t24 -60zM130 562q0 45 -45 45t-45 -45q0 -44 45 -44t45 44z" />
    <glyph glyph-name="ogonek" unicode="&#x2db;" horiz-adv-x="156" 
d="M156 -169q-8 -2 -24 -2.5t-24 -0.5q-60 0 -84 26.5t-24 66.5q0 18 7.5 38.5t25.5 40.5h80q-37 -14 -50 -39t-13 -46q0 -16 5.5 -26t14 -16t19 -8t19.5 -2q12 0 25 0.5t23 2.5v-35z" />
    <glyph glyph-name="tilde" unicode="&#x2dc;" horiz-adv-x="274" 
d="M274 533q-33 -21 -79 -21q-23 0 -55.5 18t-59.5 18q-41 0 -80 -31v59q50 27 80 27q37 0 68.5 -18t46.5 -18q40 0 79 30v-64z" />
    <glyph glyph-name="hungarumlaut" unicode="&#x2dd;" horiz-adv-x="299" 
d="M187 535h-47l86 140h73zM47 535h-47l85 140h73z" />
    <glyph glyph-name="uni0E00" unicode="&#xe00;" horiz-adv-x="175" 
 />
    <glyph glyph-name="uni0E01" unicode="&#xe01;" horiz-adv-x="476" 
d="M422 0h-72v346q0 58 -20.5 78.5t-80.5 20.5q-83 0 -128 -11v-434h-72v480q93 26 200 26q93 0 135 -42q38 -39 38 -118v-346z" />
    <glyph glyph-name="uni0E02" unicode="&#xe02;" horiz-adv-x="409" 
d="M359 178q0 -99 -38 -140t-130 -41q-94 0 -133 7v272q0 32 24.5 80.5t24.5 69.5v15h-67v60h131v-83q0 -24 -20.5 -66.5t-20.5 -67.5v-225q18 -3 63 -3q51 0 72 25t21 94v326h73v-323z" />
    <glyph glyph-name="uni0E03" unicode="&#xe03;" horiz-adv-x="412" 
d="M363 178q0 -100 -38.5 -140.5t-130.5 -40.5q-93 0 -133 7v272q0 32 25 80.5t25 69.5v10h-75v65h35l38 -37l32 37h37v-83q0 -24 -22.5 -66.5t-22.5 -67.5v-225q18 -3 63 -3q51 0 72.5 25t21.5 94v326h73v-323z" />
    <glyph glyph-name="uni0E04" unicode="&#xe04;" horiz-adv-x="497" 
d="M443 0h-72v319q0 78 -25 104.5t-98 26.5t-97.5 -27t-24.5 -104v-87q20 43 79 43h69v-64h-67q-33 0 -57 -24.5t-24 -60.5v-126h-72v324q0 95 45.5 139.5t148.5 44.5t149 -44.5t46 -139.5v-324z" />
    <glyph glyph-name="uni0E05" unicode="&#xe05;" horiz-adv-x="509" 
d="M455 0h-72v322q0 110 -62 124l-66 -57l-66 56q-35 -11 -49 -37t-14 -86v-90q20 43 79 43h69v-64h-67q-33 0 -57 -24.5t-24 -60.5v-126h-72v328q0 167 146 178l55 -53l55 53q75 -6 110 -48.5t35 -129.5v-328z" />
    <glyph glyph-name="uni0E06" unicode="&#xe06;" horiz-adv-x="487" 
d="M433 153q0 -86 -37 -124.5t-116 -38.5q-84 0 -152 59l-16 -49h-54v276q0 32 25 80.5t25 69.5v10h-75v65h35l38 -37l33 37h36v-83q0 -24 -22.5 -66.5t-22.5 -67.5v-173q29 -25 71.5 -43.5t76.5 -18.5q83 0 83 103v349h72v-348z" />
    <glyph glyph-name="uni0E07" unicode="&#xe07;" horiz-adv-x="391" 
d="M337 132q0 -136 -149 -136q-39 0 -77 4l-93 321h75l73 -266h22q77 0 77 77v312h-59v57h131v-369z" />
    <glyph glyph-name="uni0E08" unicode="&#xe08;" horiz-adv-x="401" 
d="M347 0h-73v123q0 36 -25.5 62t-58.5 26h-67v64h69q64 0 82 -43v112q0 99 -93 99q-102 0 -163 -10v60q65 8 169 8q160 0 160 -170v-331z" />
    <glyph glyph-name="uni0E09" unicode="&#xe09;" horiz-adv-x="469" 
d="M415 0h-53l-16 50q-29 -26 -72.5 -43t-76.5 -17q-78 0 -115 38t-37 125v122h72v-123q0 -104 82 -104q35 0 76.5 19t67.5 45v189q0 81 -26.5 110t-105.5 29q-99 0 -153 -9v62q65 8 153 8q113 0 158.5 -46.5t45.5 -153.5v-301z" />
    <glyph glyph-name="uni0E0A" unicode="&#xe0a;" horiz-adv-x="409" 
d="M359 171q0 -98 -36 -136t-129 -38q-76 0 -136 7v272q0 32 24 80.5t24 69.5v18h-66v57h130v-83q0 -24 -20 -66.5t-20 -67.5v-225q29 -3 66 -3q53 0 71.5 22.5t18.5 89.5v121q0 73 -55 73h-16v50h14q26 0 36.5 14.5t10.5 54.5v20h76v-20q0 -71 -60 -92q67 -19 67 -107v-111
z" />
    <glyph glyph-name="uni0E0B" unicode="&#xe0b;" horiz-adv-x="412" 
d="M363 171q0 -98 -36 -136t-129 -38q-77 0 -137 7v272q0 32 25 80.5t25 69.5v10h-75v65h34l38 -37l32 37h37v-83q0 -24 -22 -66.5t-22 -67.5v-225q30 -3 67 -3q53 0 71.5 22.5t18.5 89.5v121q0 73 -55 73h-16v50h13q26 0 37 14.5t11 54.5v20h75v-20q0 -71 -59 -92
q67 -19 67 -107v-111z" />
    <glyph glyph-name="uni0E0C" unicode="&#xe0c;" horiz-adv-x="736" 
d="M682 153q0 -163 -149 -163q-71 0 -128 60l-18 -50h-51v346q0 58 -21 78.5t-81 20.5q-69 0 -113 -11v-377h68v-57h-140v480q93 26 185 26q174 0 174 -160v-234q63 -63 119 -63q83 0 83 103v349h72v-348z" />
    <glyph glyph-name="uni0E0D" unicode="&#xe0d;" horiz-adv-x="740" 
d="M686 4q0 -83 -43.5 -122.5t-143.5 -39.5q-76 0 -129 12v61q66 -12 129 -12q66 0 90.5 21t24.5 71v40q-56 -45 -126 -45q-79 0 -117 38.5t-38 124.5v193q0 58 -20.5 78.5t-80.5 20.5q-67 0 -111 -11v-377h68v-57h-140v480q93 26 183 26q93 0 135 -42q38 -39 38 -118v-194
q0 -103 85 -103q57 0 124 51v401h72v-497z" />
    <glyph glyph-name="uni0E0E" unicode="&#xe0e;" horiz-adv-x="490" 
d="M436 4q0 -83 -40 -122.5t-131 -39.5q-39 0 -93 6v60q57 -5 93 -5q54 0 76.5 21t22.5 71v351q0 58 -20 78.5t-80 20.5q-81 0 -125 -11v-434h-121v57h49v423q92 26 197 26q172 0 172 -160v-342z" />
    <glyph glyph-name="uni0E0F" unicode="&#xe0f;" horiz-adv-x="490" 
d="M436 -19q0 -139 -135 -139l-48 39l-40 -39q-48 0 -74 9v61q34 -13 66 -13l45 42l51 -40q35 0 49 16.5t14 59.5v369q0 58 -20 78.5t-80 20.5q-81 0 -125 -11v-434h-121v57h49v423q92 26 197 26q172 0 172 -160v-365z" />
    <glyph glyph-name="uni0E10" unicode="&#xe10;" horiz-adv-x="407" 
d="M334 0h-73v123q0 36 -26 62t-59 26h-66v64h68q63 0 83 -43v112q0 99 -94 99q-102 0 -163 -10v60q67 8 170 8q50 0 74 -13l123 16v-68h-64q27 -37 27 -108v-328zM334 -79q0 -37 -23 -58t-55 -21h-41l-48 38l-39 -38q-49 0 -75 9v61q36 -13 67 -13l45 41l50 -39h19
q28 0 28 25v10h72v-15z" />
    <glyph glyph-name="uni0E11" unicode="&#xe11;" horiz-adv-x="486" 
d="M432 0h-72v391q0 28 -18.5 45t-49.5 17q-56 0 -106 -53q-53 -56 -53 -128v-272h-72v272q0 44 25 92t25 64v8h-80v65h31l38 -37l32 37h37v-42q54 53 133 53q56 0 93 -33t37 -88v-391z" />
    <glyph glyph-name="uni0E12" unicode="&#xe12;" horiz-adv-x="753" 
d="M699 153q0 -87 -37 -125t-116 -38q-67 0 -124 49l-12 -39h-57v417l-17 13l-62 -47l-76 58q-101 -30 -101 -199q0 -84 32.5 -135t83.5 -51q24 0 49 3v-58q-24 -4 -52 -4q-83 0 -133 69.5t-50 175.5q0 115 49 185q46 66 128 80l69 -57l71 56l81 -57v-349q24 -19 59.5 -35
t59.5 -16q83 0 83 103v349h72v-348z" />
    <glyph glyph-name="uni0E13" unicode="&#xe13;" horiz-adv-x="736" 
d="M682 0h-54l-17 49q-61 -59 -125 -59q-79 0 -116 38t-37 125v193q0 58 -20.5 78.5t-80.5 20.5q-67 0 -111 -11v-377h68v-57h-140v480q93 26 183 26q93 0 135 -42q38 -39 38 -118v-194q0 -103 83 -103q66 0 122 63v389h72v-501z" />
    <glyph glyph-name="uni0E14" unicode="&#xe14;" horiz-adv-x="472" 
d="M418 0h-72v430q-40 15 -94 15q-74 0 -114 -49.5t-40 -139.5q0 -86 30 -141q31 -58 83 -58q33 0 51 3v-59q-21 -4 -50 -4q-88 0 -137 74q-48 70 -48 185q0 120 59 185t163 65q82 0 169 -27v-479z" />
    <glyph glyph-name="uni0E15" unicode="&#xe15;" horiz-adv-x="490" 
d="M436 0h-72v417l-18 13l-71 -50l-77 61q-101 -30 -101 -199q0 -84 32.5 -135t83.5 -51q24 0 49 3v-58q-24 -4 -52 -4q-83 0 -133 69.5t-50 175.5q0 115 49 185q46 66 128 80l70 -61l81 60l81 -57v-449z" />
    <glyph glyph-name="uni0E16" unicode="&#xe16;" horiz-adv-x="478" 
d="M424 0h-72v346q0 58 -21 78.5t-81 20.5q-84 0 -129 -11v-377h68v-57h-140v480q93 26 201 26q174 0 174 -160v-346z" />
    <glyph glyph-name="uni0E17" unicode="&#xe17;" horiz-adv-x="483" 
d="M429 0h-72v391q0 29 -22 45.5t-50 16.5q-32 0 -77 -14q-49 -15 -78 -36v-403h-72v501h58l14 -36q64 47 166 47q55 0 93 -32q40 -35 40 -89v-391z" />
    <glyph glyph-name="uni0E18" unicode="&#xe18;" horiz-adv-x="429" 
d="M407 140q0 -145 -197 -145q-95 0 -161 10v182h70v-123q42 -6 91 -6q127 0 127 82q0 45 -77 74q-74 21 -143 53q-77 41 -77 113q0 127 173 127q76 0 151 -9v-62q-57 11 -144 11q-108 0 -108 -67q0 -48 76 -77q69 -22 143 -51q76 -39 76 -112z" />
    <glyph glyph-name="uni0E19" unicode="&#xe19;" horiz-adv-x="478" 
d="M424 0h-54l-17 51q-29 -25 -72 -43t-79 -18q-79 0 -116 38.5t-37 124.5v348h72v-349q0 -103 83 -103q34 0 79 20q42 18 69 43v389h72v-501z" />
    <glyph glyph-name="uni0E1A" unicode="&#xe1a;" horiz-adv-x="482" 
d="M428 200q0 -121 -44 -164q-38 -39 -140 -39q-129 0 -195 7v497h72v-442q28 -3 125 -3q61 0 85 28.5t24 114.5v302h73v-301z" />
    <glyph glyph-name="uni0E1B" unicode="&#xe1b;" horiz-adv-x="482" 
d="M428 200q0 -121 -44 -164q-38 -39 -140 -39q-129 0 -195 7v497h72v-442q28 -3 125 -3q61 0 85 28.5t24 114.5v447h73v-446z" />
    <glyph glyph-name="uni0E1C" unicode="&#xe1c;" horiz-adv-x="611" 
d="M557 181q0 -186 -159 -186q-57 0 -103 38q-43 -38 -120 -38q-64 0 -126 19v487h130v-60h-58v-380q21 -7 55 -7q50 0 71 27t21 96v324h73v-320q0 -59 -13 -97q30 -30 72 -30q46 0 65 28t19 95v325h73v-321z" />
    <glyph glyph-name="uni0E1D" unicode="&#xe1d;" horiz-adv-x="611" 
d="M557 181q0 -186 -159 -186q-57 0 -103 38q-43 -38 -120 -38q-64 0 -126 19v487h130v-60h-58v-380q21 -7 55 -7q50 0 71 27t21 96v324h73v-320q0 -59 -13 -97q30 -30 72 -30q46 0 65 28t19 95v469h73v-465z" />
    <glyph glyph-name="uni0E1E" unicode="&#xe1e;" horiz-adv-x="599" 
d="M481 0h-92l-89 380l-89 -380h-93l-96 501h75l71 -419l97 419h70l96 -419l71 419h75z" />
    <glyph glyph-name="uni0E1F" unicode="&#xe1f;" horiz-adv-x="603" 
d="M481 0h-92l-92 380l-86 -380h-93l-96 501h75l71 -419l94 419h70l99 -419l79 564h75z" />
    <glyph glyph-name="uni0E20" unicode="&#xe20;" horiz-adv-x="490" 
d="M436 0h-72v346q0 58 -20 78.5t-80 20.5q-81 0 -125 -11v-434h-121v57h49v423q92 26 197 26q172 0 172 -160v-346z" />
    <glyph glyph-name="uni0E21" unicode="&#xe21;" horiz-adv-x="478" 
d="M424 153q0 -86 -37 -124.5t-116 -38.5q-36 0 -79.5 18t-70.5 43l-18 -51h-54v501h72v-389q28 -25 73 -44t75 -19q83 0 83 103v349h72v-348z" />
    <glyph glyph-name="uni0E22" unicode="&#xe22;" horiz-adv-x="468" 
d="M414 5q-88 -8 -198 -8q-185 0 -185 169q0 84 65 123q-56 32 -56 108q0 46 26.5 75t66.5 29h67v-61h-54q-39 0 -39 -44q0 -75 81 -75h52v-59h-38q-21 0 -44 5q-56 -22 -56 -101q0 -110 112 -110q81 0 128 5v440h72v-496z" />
    <glyph glyph-name="uni0E23" unicode="&#xe23;" horiz-adv-x="366" 
d="M339 129q0 -134 -168 -134q-67 0 -124 9v63q54 -14 125 -14q97 0 97 76q0 30 -18 47.5t-76 36.5q-88 30 -120.5 62.5t-32.5 94.5q0 57 39 92q42 39 122 39q79 0 127 -8v-60q-61 10 -127 10q-91 0 -91 -73q0 -55 81 -83q105 -36 137 -68q29 -29 29 -90z" />
    <glyph glyph-name="uni0E24" unicode="&#xe24;" horiz-adv-x="478" 
d="M424 -181h-72v527q0 58 -21 78.5t-81 20.5q-84 0 -129 -11v-377h68v-57h-140v480q93 26 201 26q174 0 174 -160v-527z" />
    <glyph glyph-name="uni0E25" unicode="&#xe25;" horiz-adv-x="443" 
d="M389 0h-72v233h-134q-89 0 -89 -88q0 -38 23 -62.5t54 -24.5q37 0 62 5v-58q-45 -5 -64 -5q-68 0 -107.5 40t-39.5 105q0 146 165 146h130v64q0 88 -111 88q-87 0 -147 -10v60q67 8 153 8q177 0 177 -158v-343z" />
    <glyph glyph-name="uni0E26" unicode="&#xe26;" horiz-adv-x="490" 
d="M436 -181h-72v527q0 58 -20 78.5t-80 20.5q-81 0 -125 -11v-434h-121v57h49v423q92 26 197 26q172 0 172 -160v-527z" />
    <glyph glyph-name="uni0E27" unicode="&#xe27;" horiz-adv-x="365" 
d="M338 246q0 -126 -43 -187q-47 -65 -152 -65q-47 0 -92 4v60q42 -6 92 -6q61 0 90 42q32 46 32 152q0 113 -23 156t-90 43q-68 0 -134 -6v61q63 6 135 6q100 0 142.5 -59.5t42.5 -200.5z" />
    <glyph glyph-name="uni0E28" unicode="&#xe28;" horiz-adv-x="513" 
d="M443 0h-72v319q0 78 -25 104.5t-98 26.5t-97.5 -27t-24.5 -104v-87q20 43 79 43h69v-64h-67q-33 0 -57 -24.5t-24 -60.5v-126h-72v324q0 95 45.5 139.5t148.5 44.5q74 0 102 -15l127 17v-67h-73q16 -11 27.5 -42t11.5 -58v-343z" />
    <glyph glyph-name="uni0E29" unicode="&#xe29;" horiz-adv-x="486" 
d="M428 200q0 -121 -44 -164q-38 -39 -140 -39q-129 0 -195 7v497h72v-442q28 -3 125 -3q61 0 85 28.5t24 114.5v61h-94v62h94v179h73v-179h40v-62h-40v-60z" />
    <glyph glyph-name="uni0E2A" unicode="&#xe2a;" horiz-adv-x="462" 
d="M389 0h-72v233h-134q-89 0 -89 -88q0 -38 23 -62.5t54 -24.5q37 0 62 5v-58q-45 -5 -64 -5q-68 0 -107.5 40t-39.5 105q0 146 165 146h130v64q0 88 -107 88q-91 0 -151 -10v60q67 8 157 8q57 0 83 -14l127 17v-68h-73q36 -24 36 -90v-346z" />
    <glyph glyph-name="uni0E2B" unicode="&#xe2b;" horiz-adv-x="472" 
d="M431 0h-73v185q0 95 -92 95h-145v-279h-72v501h72v-160h116l118 160h86l-131 -166q52 -7 86 -47q35 -43 35 -104v-185z" />
    <glyph glyph-name="uni0E2C" unicode="&#xe2c;" horiz-adv-x="617" 
d="M563 181q0 -186 -166 -186q-57 0 -103 38q-43 -38 -113 -38q-45 0 -132 13v493h72v-437q30 -10 62 -10q49 0 66.5 26t17.5 97v324h73v-320q0 -62 -12 -97q30 -30 71 -30q91 0 91 123v202q0 73 -54 73h-17v50h14q26 0 37 14.5t11 54.5v75h75v-75q0 -71 -59 -92
q66 -19 66 -107v-191z" />
    <glyph glyph-name="uni0E2D" unicode="&#xe2d;" horiz-adv-x="449" 
d="M413 256q0 -142 -44 -201.5t-153 -59.5q-105 0 -171 10v270h141v-63h-69v-148q35 -5 99 -5q71 0 96 40t25 157q0 113 -29 152q-27 36 -101 36q-89 0 -157 -14l-3 66q70 12 160 12q111 0 158.5 -58.5t47.5 -193.5z" />
    <glyph glyph-name="uni0E2E" unicode="&#xe2e;" horiz-adv-x="450" 
d="M413 256q0 -142 -44 -201.5t-153 -59.5q-105 0 -171 10v270h141v-63h-69v-148q35 -5 99 -5q71 0 96 40t25 157q0 113 -29 152q-27 36 -101 36q-89 0 -157 -14l-3 66q70 12 160 12q61 0 104 -20l121 16v-68h-62q43 -52 43 -180z" />
    <glyph glyph-name="uni0E2F" unicode="&#xe2f;" horiz-adv-x="483" 
d="M411 4q0 -83 -40 -122.5t-131 -39.5q-38 0 -92 6v60q57 -5 92 -5q55 0 77 21t22 71v352q-56 -45 -126 -45q-79 0 -117 38.5t-38 124.5v27h72v-28q0 -103 85 -103q57 0 124 51v80h72v-488z" />
    <glyph glyph-name="uni0E30" unicode="&#xe30;" horiz-adv-x="242" 
d="M204 342h-177v92h62v-35h126zM204 95h-177v92h62v-35h126z" />
    <glyph glyph-name="uni0E31" unicode="&#xe31;" 
d="M136 584h-327v96h72v-34h266z" />
    <glyph glyph-name="uni0E32" unicode="&#xe32;" horiz-adv-x="357" 
d="M308 0h-73v344q0 99 -94 99q-77 0 -137 -10v60q67 8 144 8q160 0 160 -170v-331z" />
    <glyph glyph-name="uni0E33" unicode="&#xe33;" horiz-adv-x="353" 
d="M303 0h-73v344q0 99 -93 99q-77 0 -137 -10v60q65 8 143 8q160 0 160 -170v-331zM-23 624q0 -36 -25 -62t-61 -26t-61.5 26t-25.5 62t25 61.5t62 25.5q36 0 61 -25.5t25 -61.5zM-70 624q0 15 -11.5 26t-27.5 11t-27.5 -11t-11.5 -26q0 -16 11.5 -27.5t27.5 -11.5
t27.5 11.5t11.5 27.5z" />
    <glyph glyph-name="uni0E34" unicode="&#xe34;" 
d="M-59 584h-338l10 62h328v-62z" />
    <glyph glyph-name="uni0E35" unicode="&#xe35;" 
d="M-59 584h-338l10 62h268v53h60v-115z" />
    <glyph glyph-name="uni0E36" unicode="&#xe36;" 
d="M-46 643q0 -25 -18 -42t-46 -17h-287l10 62h213q0 27 17 44.5t45 17.5q66 0 66 -65zM-86 646q0 25 -25 25q-24 0 -24 -25q0 -24 24 -24q25 0 25 24z" />
    <glyph glyph-name="uni0E37" unicode="&#xe37;" 
d="M-59 584h-338l10 62h175v53h53v-53h44v53h56v-115z" />
    <glyph glyph-name="uni0E38" unicode="&#xe38;" 
d="M-61 -260h-62v129h-46l11 53h97v-182z" />
    <glyph glyph-name="uni0E39" unicode="&#xe39;" 
d="M-61 -193q0 -33 -24 -55q-27 -25 -74 -25q-93 0 -93 80v62h-46l11 53h90v-104q0 -39 37 -39q38 0 38 39v104h61v-115z" />
    <glyph glyph-name="uni0E3A" unicode="&#xe3a;" 
d="M-39 -124q0 -24 -16.5 -40.5t-40.5 -16.5q-25 0 -41 16t-16 41q0 24 16.5 40.5t40.5 16.5q23 0 40 -17t17 -40z" />
    <glyph glyph-name="uni0E3F" unicode="&#xe3f;" horiz-adv-x="535" 
d="M473 175q0 -95 -39.5 -135t-124.5 -40h-29v-88h-46v88h-155v632h155v87h46v-87h28q146 0 146 -159q0 -107 -64 -145q83 -29 83 -153zM400 175q0 66 -21.5 89t-76.5 23h-22v-224h29q49 0 70 25t21 87zM382 473q0 96 -73 96h-29v-219h12q47 0 68.5 28t21.5 95zM234 63v224
h-83v-224h83zM234 350v219h-83v-219h83z" />
    <glyph glyph-name="uni0E40" unicode="&#xe40;" horiz-adv-x="217" 
d="M175 0h-117v501h72v-444h55z" />
    <glyph glyph-name="uni0E41" unicode="&#xe41;" horiz-adv-x="430" 
d="M175 0h-117v501h72v-444h55zM383 0h-116v501h72v-444h55z" />
    <glyph glyph-name="uni0E42" unicode="&#xe42;" horiz-adv-x="247" 
d="M209 0h-116v548l-134 90q0 134 144 134h181v-62h-182q-70 0 -70 -49l133 -90v-514h55z" />
    <glyph glyph-name="uni0E43" unicode="&#xe43;" horiz-adv-x="230" 
d="M187 0h-116v450q0 56 29 95q9 11 54 51q29 26 29 51q0 68 -87 68q-76 0 -131 -36v64q50 35 131 35q76 0 118 -37q39 -34 39 -94q0 -43 -29 -71l-52 -44q-29 -31 -29 -79v-396h55z" />
    <glyph glyph-name="uni0E44" unicode="&#xe44;" horiz-adv-x="249" 
d="M193 0h-116v520q0 53 30.5 111t70.5 76h-237v65h330v-66q-52 -19 -87 -70.5t-35 -114.5v-464h55z" />
    <glyph glyph-name="uni0E45" unicode="&#xe45;" horiz-adv-x="357" 
d="M308 -181h-73v525q0 99 -94 99q-77 0 -137 -10v60q67 8 144 8q160 0 160 -170v-512z" />
    <glyph glyph-name="uni0E46" unicode="&#xe46;" horiz-adv-x="427" 
d="M368 4q0 -83 -40 -122.5t-131 -39.5q-39 0 -93 6v60q58 -5 93 -5q55 0 77 21t22 71v414l-31 21l-65 -43l-71 50q-35 -17 -35 -73h-63q0 123 104 139l66 -50l73 52l94 -65v-436z" />
    <glyph glyph-name="uni0E47" unicode="&#xe47;" 
d="M-129 586l-56 -4l-42 33l-42 -34q-39 0 -66 23.5t-27 61.5q0 40 29 65.5t82 25.5q50 0 122 -6v-51q-57 6 -122 6q-51 0 -51 -40q0 -32 36 -32l40 34l42 -34l55 4v-52z" />
    <glyph glyph-name="uni0E48" unicode="&#xe48;" 
d="M-65 730h-42l-7 56v60h56v-61z" />
    <glyph glyph-name="uni0E49" unicode="&#xe49;" 
d="M18 730h-199v55h-48v49h101v-48h157z" />
    <glyph glyph-name="uni0E4A" unicode="&#xe4a;" 
d="M55 816q0 -36 -25 -59.5t-68 -23.5h-46v27q0 20 -13 20l-36 -22l-31 22q-16 0 -16 -21v-26h-62v38q0 28 22 49t47 21l42 -36l36 36q24 0 43.5 -20.5t19.5 -49.5q11 0 21 12.5t10 33.5v30h56v-31z" />
    <glyph glyph-name="uni0E4B" unicode="&#xe4b;" 
d="M-18 760l-45 2l2 -39h-54l2 39l-47 -2v48l46 -3l-2 41h54l-2 -41l46 3v-48z" />
    <glyph glyph-name="uni0E4C" unicode="&#xe4c;" 
d="M22 717h-155v-34h-64v92h231z" />
    <glyph glyph-name="uni0E4D" unicode="&#xe4d;" 
d="M-23 624q0 -36 -25 -62t-61 -26t-61.5 26t-25.5 62t25 61.5t62 25.5q36 0 61 -25.5t25 -61.5zM-70 624q0 15 -11.5 26t-27.5 11t-27.5 -11t-11.5 -26q0 -16 11.5 -27.5t27.5 -11.5t27.5 11.5t11.5 27.5z" />
    <glyph glyph-name="uni0E4E" unicode="&#xe4e;" 
 />
    <glyph glyph-name="uni0E4F" unicode="&#xe4f;" horiz-adv-x="468" 
d="M411 180q0 -73 -51 -124.5t-123 -51.5q-73 0 -124 51.5t-51 124.5q0 72 51 123.5t124 51.5q72 0 123 -51.5t51 -123.5zM384 180q0 61 -43 104.5t-104 43.5t-104.5 -43.5t-43.5 -104.5q0 -62 43.5 -105.5t104.5 -43.5t104 43.5t43 105.5zM337 180q0 -43 -29.5 -72.5
t-70.5 -29.5q-42 0 -72 30t-30 71q0 43 30 72.5t71 29.5q42 0 71.5 -30t29.5 -71z" />
    <glyph glyph-name="uni0E50" unicode="&#xe50;" horiz-adv-x="488" 
d="M447 201q0 -207 -203 -207q-204 0 -204 207q0 206 204 206q203 0 203 -206zM379 201q0 78 -31.5 112t-103.5 34t-103.5 -34t-31.5 -112q0 -81 33 -115.5t102 -34.5t102 34.5t33 115.5z" />
    <glyph glyph-name="uni0E51" unicode="&#xe51;" horiz-adv-x="481" 
d="M436 202q0 -92 -59 -150t-160 -58h-105v63h105q70 0 110.5 39t40.5 106q0 145 -138 145q-119 0 -119 -91q0 -35 22.5 -56t63.5 -21q24 0 56 5v-59q-30 -6 -54 -6q-63 0 -107 35q-47 38 -47 102q0 67 48 109.5t138 42.5q95 0 150 -54t55 -152z" />
    <glyph glyph-name="uni0E52" unicode="&#xe52;" horiz-adv-x="532" 
d="M487 169q0 -70 -41.5 -119.5t-106.5 -49.5h-140q-67 0 -108.5 46t-41.5 120v327h70v-331q0 -47 24.5 -74t62.5 -27h120q40 0 66 30.5t26 73.5v103q0 73 -43 73l-48 -33l-58 36q-45 0 -45 -46q0 -45 53 -45v-57q-50 0 -81 24q-35 27 -35 77q0 46 31 76t76 30l59 -39l61 39
q45 0 71 -33q28 -36 28 -101v-100z" />
    <glyph glyph-name="uni0E53" unicode="&#xe53;" horiz-adv-x="521" 
d="M476 0h-68v253q0 84 -57 84q-28 0 -40 -15t-12 -57v-66h-63v66q0 73 -52 73q-29 0 -49 -34q-23 -38 -23 -103q0 -70 33 -110q30 -36 74 -36q24 0 45 3v-58q-23 -4 -53 -4q-67 0 -115 54q-51 59 -51 152t40 148q37 52 99 52q64 0 85 -43q21 43 82 43q57 0 91 -40t34 -109
v-253z" />
    <glyph glyph-name="uni0E54" unicode="&#xe54;" horiz-adv-x="493" 
d="M462 -4h-44q-70 0 -104 34q-40 -36 -104 -36q-79 0 -122 55t-43 155q0 199 194 199h78q79 0 79 76v19h70v-20q0 -64 -34.5 -101.5t-97.5 -37.5h-94q-71 0 -99.5 -30t-28.5 -105q0 -81 23.5 -116t74.5 -35q48 0 74 21q-19 28 -19 66q0 98 94 98h34v-61h-26q-41 0 -41 -43
q0 -38 24 -59t64 -21h48v-58z" />
    <glyph glyph-name="uni0E55" unicode="&#xe55;" horiz-adv-x="493" 
d="M274 429q0 31 -28 31q-30 0 -30 -31q0 -30 30 -30q28 0 28 30zM462 -4h-44q-70 0 -104 34q-40 -36 -109 -36q-75 0 -117.5 56.5t-42.5 155.5q0 166 138 194q-8 11 -8 27q0 33 19.5 52.5t50.5 19.5t50.5 -19t19.5 -51q0 -18 -7 -26h15q73 0 73 76v19h70v-20
q0 -64 -34 -100.5t-98 -36.5h-94q-71 0 -99.5 -30t-28.5 -105q0 -153 93 -153q53 0 79 21q-19 28 -19 66q0 98 94 98h34v-61h-26q-41 0 -41 -43q0 -38 24 -59t64 -21h48v-58z" />
    <glyph glyph-name="uni0E56" unicode="&#xe56;" horiz-adv-x="499" 
d="M454 201q0 -102 -52.5 -158t-151.5 -56q-80 0 -129 41q-45 38 -45 96q0 47 30 77.5t87 30.5v-56q-54 0 -54 -52q0 -36 31 -58t79 -22q137 0 137 157q0 149 -137 149q-86 0 -119 -71h-51l-48 218h70l26 -144q42 56 122 56q99 0 152 -55.5t53 -152.5z" />
    <glyph glyph-name="uni0E57" unicode="&#xe57;" horiz-adv-x="662" 
d="M613 168q0 -75 -41.5 -123.5t-101.5 -48.5q-34 0 -74 9v248q0 84 -53 84q-27 0 -38.5 -15t-11.5 -57v-66h-63v66q0 73 -49 73q-28 0 -48 -34q-21 -38 -21 -103q0 -70 33 -110q30 -36 74 -36q24 0 45 3v-58q-23 -4 -53 -4q-67 0 -115 54q-51 59 -51 152t38 148
q37 52 98 52q60 0 83 -43q19 43 79 43q56 0 88.5 -40t32.5 -109v-200q82 0 82 105v339h67v-329z" />
    <glyph glyph-name="uni0E58" unicode="&#xe58;" horiz-adv-x="501" 
d="M456 123q0 -57 -33.5 -92.5t-85.5 -35.5l-70 50q-37 -32 -61 -50q-81 0 -122 59q-39 54 -39 152q0 202 194 202h59q79 0 79 75v19h70v-20q0 -64 -34.5 -101t-97.5 -37h-75q-70 0 -99 -31.5t-29 -106.5q0 -148 86 -148q2 0 67 54l73 -54q22 0 38 19t16 46q0 61 -62 61v62
q55 0 90.5 -33t35.5 -90z" />
    <glyph glyph-name="uni0E59" unicode="&#xe59;" horiz-adv-x="497" 
d="M399 0h-69l-95 302q-13 40 -53 40q-71 0 -71 -138q0 -66 19 -108q20 -45 55 -45q25 0 50 6v-59q-20 -4 -50 -4q-64 0 -102 55t-38 155q0 201 135 201q57 0 89 -43q15 43 60 43q43 0 68 -23q3 9 21 116h65l-36 -197h-52q-13 45 -58 45q-33 0 -33 -35q0 -15 11 -49z" />
    <glyph glyph-name="endash" unicode="&#x2013;" horiz-adv-x="450" 
d="M450 215h-450v59h450v-59z" />
    <glyph glyph-name="emdash" unicode="&#x2014;" horiz-adv-x="900" 
d="M900 215h-900v59h900v-59z" />
    <glyph glyph-name="quoteleft" unicode="&#x2018;" horiz-adv-x="193" 
d="M171 439h-53l-87 193h81z" />
    <glyph glyph-name="quoteright" unicode="&#x2019;" horiz-adv-x="193" 
d="M76 439h-54l59 193h81z" />
    <glyph glyph-name="quotesinglbase" unicode="&#x201a;" horiz-adv-x="193" 
d="M76 -99h-54l59 193h81z" />
    <glyph glyph-name="quotedblleft" unicode="&#x201c;" horiz-adv-x="340" 
d="M171 439h-53l-87 193h81zM318 439h-53l-87 193h81z" />
    <glyph glyph-name="quotedblright" unicode="&#x201d;" horiz-adv-x="340" 
d="M222 439h-53l59 193h81zM76 439h-54l59 193h81z" />
    <glyph glyph-name="quotedblbase" unicode="&#x201e;" horiz-adv-x="340" 
d="M222 -99h-53l59 193h81zM76 -99h-54l59 193h81z" />
    <glyph glyph-name="dagger" unicode="&#x2020;" horiz-adv-x="405" 
d="M236 -111h-69v481h-122v60h122v168h69v-168h124v-60h-124v-481z" />
    <glyph glyph-name="daggerdbl" unicode="&#x2021;" horiz-adv-x="407" 
d="M238 -111h-69v248h-124v59h124v174h-122v60h122v168h69v-168h124v-60h-124v-174h122v-59h-122v-248z" />
    <glyph glyph-name="bullet" unicode="&#x2022;" horiz-adv-x="508" 
d="M400 299q0 -76 -33.5 -109t-111.5 -33q-79 0 -113 33t-34 109q0 77 33.5 110t112.5 33q78 0 112 -33t34 -110z" />
    <glyph glyph-name="ellipsis" unicode="&#x2026;" horiz-adv-x="760" 
d="M178 0h-100v100h100v-100zM430 0h-100v100h100v-100zM682 0h-100v100h100v-100z" />
    <glyph glyph-name="perthousand" unicode="&#x2030;" horiz-adv-x="1215" 
d="M311 -11h-59l284 654h62zM358 450q0 -99 -31 -144q-35 -49 -116 -49q-82 0 -116 49q-32 45 -32 144q0 100 33 146.5t115 46.5q81 0 116 -48q31 -45 31 -145zM298 450q0 86 -18 115t-69 29q-52 0 -70 -29t-18 -115q0 -85 18.5 -114.5t69.5 -29.5q50 0 68.5 29.5
t18.5 114.5zM785 182q0 -99 -32 -144q-34 -49 -116 -49q-81 0 -115 49q-32 45 -32 144q0 100 32 144q34 48 115 48q82 0 116 -48q32 -44 32 -144zM724 182q0 86 -18 115t-69 29t-69 -29t-18 -115t18.5 -115t68.5 -29t68.5 29t18.5 115zM1152 182q0 -99 -32 -144
q-34 -49 -116 -49q-81 0 -115 49q-32 45 -32 144q0 100 32 144q34 48 115 48q82 0 116 -48q32 -44 32 -144zM1092 182q0 86 -18 115t-70 29q-51 0 -69 -29t-18 -115q0 -85 18.5 -114.5t68.5 -29.5q51 0 69.5 29.5t18.5 114.5z" />
    <glyph glyph-name="guilsinglleft" unicode="&#x2039;" horiz-adv-x="229" 
d="M196 25l-175 166v67l175 166v-75l-136 -124l136 -125v-75z" />
    <glyph glyph-name="guilsinglright" unicode="&#x203a;" horiz-adv-x="229" 
d="M208 191l-175 -166v75l136 125l-136 124v75l175 -166v-67z" />
    <glyph glyph-name="fraction" unicode="&#x2044;" horiz-adv-x="258" 
d="M10 0h-66l276 632h67z" />
    <glyph glyph-name="Euro" unicode="&#x20ac;" horiz-adv-x="474" 
d="M418 1q-82 -17 -128 -17q-105 0 -157.5 55t-65.5 180h-72l12 48h57q-1 15 -1 46v40h-68l12 48h59q9 137 59 189.5t165 52.5q66 0 128 -12v-67q-58 14 -128 14q-87 0 -118 -36t-36 -141h250l-12 -48h-239v-86h219l-12 -48h-204q7 -100 42 -137q32 -33 110 -33q53 0 128 18
v-66z" />
    <glyph glyph-name="trademark" unicode="&#x2122;" horiz-adv-x="619" 
d="M562 347h-45v183l-63 -132h-38l-62 132v-183h-46v285h46l82 -175l81 175h45v-285zM160 347h-46v248h-89v37h224v-37h-89v-248z" />
    <glyph glyph-name="minus" unicode="&#x2212;" horiz-adv-x="420" 
d="M373 257h-325v65h325v-65z" />
    <glyph glyph-name="uni0E10.alt1" unicode="&#xf700;" horiz-adv-x="407" 
d="M334 0h-73v123q0 36 -26 62t-59 26h-66v64h68q63 0 83 -43v112q0 99 -94 99q-102 0 -163 -10v60q67 8 170 8q50 0 74 -13l123 16v-68h-64q27 -37 27 -108v-328z" />
    <glyph glyph-name="uni0E34.alt1" unicode="&#xf701;" 
d="M-183 584h-328l11 62h317v-62z" />
    <glyph glyph-name="uni0E35.alt1" unicode="&#xf702;" 
d="M-183 584h-326l10 62h257v53h59v-115z" />
    <glyph glyph-name="uni0E36.alt1" unicode="&#xf703;" 
d="M-166 643q0 -25 -18 -42t-46 -17h-279l10 62h206q0 28 16.5 45t45.5 17q31 0 48 -18t17 -47zM-205 646q0 25 -25 25t-25 -25q0 -24 25 -24t25 24z" />
    <glyph glyph-name="uni0E37.alt1" unicode="&#xf704;" 
d="M-176 584h-333l10 62h170v53h54v-53h44v53h55v-115z" />
    <glyph glyph-name="uni0E48.alt1" unicode="&#xf705;" 
d="M-218 578h-55l-7 65v77h69v-78z" />
    <glyph glyph-name="uni0E49.alt1" unicode="&#xf706;" 
d="M22 584h-245v61h-58v54h117v-53h197z" />
    <glyph glyph-name="uni0E4A.alt1" unicode="&#xf707;" 
d="M-77 677q0 -40 -28 -66.5t-75 -26.5h-56v31q0 21 -15 21l-40 -25l-34 25q-18 0 -18 -24v-28h-68v42q0 32 24 54.5t52 22.5l46 -39l41 39q26 0 48 -22.5t22 -54.5q12 0 23 14t11 38v32h67v-33z" />
    <glyph glyph-name="uni0E4B.alt1" unicode="&#xf708;" 
d="M-184 617l-52 3l2 -47h-65l2 47l-54 -3v59l53 -3l-2 45h65l-2 -45l53 3v-59z" />
    <glyph glyph-name="uni0E4C.alt1" unicode="&#xf709;" 
d="M13 619h-199v-34h-68v96h279z" />
    <glyph glyph-name="uni0E48.alt2" unicode="&#xf70a;" 
d="M-68 578h-55l-8 65v77h70v-78z" />
    <glyph glyph-name="uni0E49.alt2" unicode="&#xf70b;" 
d="M13 584h-222v61h-57v54h117v-53h173z" />
    <glyph glyph-name="uni0E4A.alt2" unicode="&#xf70c;" 
d="M66 677q0 -40 -28 -66.5t-75 -26.5h-51v31q0 21 -16 21l-39 -25l-34 25q-18 0 -18 -24v-28h-69v42q0 32 24.5 54.5t52.5 22.5l46 -39l41 39q25 0 47 -22.5t22 -54.5q13 0 24 14t11 38v32h62v-33z" />
    <glyph glyph-name="uni0E4B.alt2" unicode="&#xf70d;" 
d="M-13 617l-52 3l2 -47h-65l2 47l-54 -3v59l53 -3l-2 45h65l-2 -45l53 3v-59z" />
    <glyph glyph-name="uni0E4C.alt2" unicode="&#xf70e;" 
d="M22 619h-155v-34h-70v96h237z" />
    <glyph glyph-name="uni0E0D.alt1" unicode="&#xf70f;" horiz-adv-x="730" 
d="M676 102q0 -84 -42 -123q-45 -40 -144 -40q-69 0 -127 13v61q61 -13 127 -13t91 22q23 19 23 70v31q-56 -45 -121 -45q-79 0 -116.5 38t-37.5 124v106q0 58 -19 78.5t-78 20.5q-67 0 -111 -11v-377h68v-57h-140v480q93 26 183 26q93 0 133 -42q36 -38 36 -118v-106
q0 -104 84 -104q49 0 119 51v314h72v-399z" />
    <glyph glyph-name="uni0E31.alt1" unicode="&#xf710;" 
d="M57 584h-339v96h72v-34h277z" />
    <glyph glyph-name="uni0E4D.alt1" unicode="&#xf711;" 
d="M-176 633q0 -36 -25.5 -62t-61.5 -26t-61.5 26t-25.5 62t25.5 61.5t61.5 25.5t61.5 -25.5t25.5 -61.5zM-224 633q0 15 -11.5 26t-27.5 11t-27.5 -11t-11.5 -26q0 -16 11.5 -27.5t27.5 -11.5t27.5 11.5t11.5 27.5z" />
    <glyph glyph-name="uni0E47.alt1" unicode="&#xf712;" 
d="M-194 586l-57 -4l-42 33l-42 -34q-38 0 -65.5 23.5t-27.5 61.5q0 40 29 65.5t82 25.5q51 0 123 -6v-51q-59 6 -123 6q-50 0 -50 -40q0 -32 35 -32l40 34l43 -34l55 4v-52z" />
    <glyph glyph-name="uni0E48.alt3" unicode="&#xf713;" 
d="M-191 730h-42l-7 56v60h56v-61z" />
    <glyph glyph-name="uni0E49.alt3" unicode="&#xf714;" 
d="M21 730h-254v55h-48v49h101v-48h211z" />
    <glyph glyph-name="uni0E4A.alt3" unicode="&#xf715;" 
d="M-77 816q0 -36 -25.5 -59.5t-67.5 -23.5h-46v27q0 20 -14 20l-36 -22l-30 22q-16 0 -16 -21v-26h-62v38q0 28 21.5 49t47.5 21l41 -36l37 36q24 0 43.5 -20.5t19.5 -49.5q11 0 21 12.5t10 33.5v30h56v-31z" />
    <glyph glyph-name="uni0E4B.alt3" unicode="&#xf716;" 
d="M-197 760l-45 2l2 -39h-54l1 39l-46 -2v48l46 -3l-2 41h54l-2 -41l46 3v-48z" />
    <glyph glyph-name="uni0E4C.alt3" unicode="&#xf717;" 
d="M-17 717h-168v-34h-63v92h243z" />
    <glyph glyph-name="uni0E38.alt1" unicode="&#xf718;" 
d="M-63 -356h-62v110h-46l11 52h97v-162z" />
    <glyph glyph-name="uni0E39.alt1" unicode="&#xf719;" 
d="M-65 -295q0 -34 -25 -57t-73 -23q-93 0 -93 80v48h-46l11 53h90v-90q0 -40 37 -40q38 0 38 40v90h61v-101z" />
    <glyph glyph-name="uni0E3A.alt1" unicode="&#xf71a;" 
d="M-57 -262q0 -24 -17 -40.5t-40 -16.5q-25 0 -41 16.5t-16 40.5t16.5 41t40.5 17q23 0 40 -17t17 -41z" />
    <glyph glyph-name="uni0E2C.alt1" unicode="&#xf71d;" horiz-adv-x="631" 
d="M572 181q0 -186 -166 -186q-57 0 -103 38q-43 -38 -113 -38q-45 0 -132 13v493h72v-437q30 -10 62 -10q49 0 66.5 26t17.5 97v324h73v-320q0 -62 -12 -97q30 -30 71 -30q91 0 91 123v112q0 73 -54 73h-17v50h14q26 0 37 14.5t11 54.5v20h75v-20q0 -71 -59 -92
q66 -19 66 -107v-101z" />
    <glyph glyph-name="nonbreakingspace" unicode="&#xa0;" horiz-adv-x="531" 
 />
    <glyph glyph-name="dollar" unicode="$" horiz-adv-x="461" 
d="M431 168q0 -163 -168 -177v-79h-51v77q-74 3 -150 17v71q78 -20 150 -22v246q-83 25 -116 51q-54 42 -54 120q0 160 170 170v78h51v-78q68 -3 135 -15v-69q-43 9 -135 19v-220q79 -24 115 -56q53 -47 53 -133zM367 168q0 81 -104 116v-227q104 16 104 111zM212 373v204
q-56 -4 -81.5 -28t-25.5 -77q0 -41 31 -65q23 -18 76 -34z" />
    <glyph glyph-name="numbersign" unicode="#" horiz-adv-x="461" 
d="M301 29h-53l35 160h-156l-36 -160h-56l37 160h-64l11 49h64l33 150h-64l12 48h62l36 160h53l-33 -160h157l34 160h54l-36 -160h62l-10 -48h-63l-33 -150h61l-11 -49h-60zM294 238l33 150h-157l-33 -150h157z" />
    <glyph glyph-name="uni0E5B" unicode="&#xe5b;" horiz-adv-x="747" 
d="M612 249q0 -26 -6.5 -40.5t-26.5 -24.5l-183 -93v215q0 14 3 21t13 12l131 67q12 6 26 6q18 0 30.5 -12t12.5 -36v-115zM563 472q0 -11 -7 -22t-22 -19l-134 -67q-17 -8 -22 -22t-5 -33v-230l-238 122v234q0 18 5 28t21 18l148 76q31 17 62 17q17 0 33 -5t34 -14l104 -51
q21 -11 21 -32z" />
    <glyph glyph-name="uni0E0E.alt1" unicode="&#xf71b;" horiz-adv-x="490" 
d="M436 4q0 -83 -40 -122.5t-131 -39.5q-39 0 -93 6v60q57 -5 93 -5q54 0 76.5 21t22.5 71v351q0 58 -20 78.5t-80 20.5q-81 0 -125 -11v-434h-121v57h49v423q92 26 197 26q172 0 172 -160v-342z" />
    <glyph glyph-name="uni0E0F.alt1" unicode="&#xf71c;" horiz-adv-x="490" 
d="M436 -19q0 -139 -135 -139l-48 24l-40 -24q-48 0 -74 9v61q34 -13 66 -13l45 26l51 -24q35 0 49 16.5t14 59.5v369q0 58 -20 78.5t-80 20.5q-81 0 -125 -11v-434h-121v57h49v423q92 26 197 26q172 0 172 -160v-365z" />
    <glyph glyph-name="notequal" unicode="&#x2260;" horiz-adv-x="420" 
d="M367 135h-174l-43 -103h-67l41 103h-70v65h95l54 131h-149v65h174l44 111h68l-44 -111h71v-65h-96l-54 -131h150v-65z" />
    <glyph glyph-name="infinity" unicode="&#x221e;" horiz-adv-x="744" 
d="M696 265q0 -64 -41.5 -108.5t-110.5 -44.5q-106 0 -173 105h-2q-72 -105 -170 -105q-70 0 -112.5 42t-42.5 107q0 68 42 110t110 42q103 0 173 -104h2q70 104 170 104q68 0 111.5 -41t43.5 -107zM634 264q0 41 -22 67q-25 28 -73 28q-77 0 -139 -96q57 -97 139 -97
q47 0 73 30q22 26 22 68zM340 263q-59 96 -140 96q-46 0 -70.5 -28t-24.5 -70t27 -68.5t69 -26.5q77 0 139 97z" />
    <glyph glyph-name="lessequal" unicode="&#x2264;" horiz-adv-x="420" 
d="M367 0h-313v65h313v-65zM367 123l-313 160v53l313 161v-70l-235 -117v-1l235 -117v-69z" />
    <glyph glyph-name="greaterequal" unicode="&#x2265;" horiz-adv-x="420" 
d="M366 0h-312v65h312v-65zM367 284l-313 -161v70l235 117v1l-235 117v69l313 -160v-53z" />
    <glyph glyph-name="partialdiff" unicode="&#x2202;" horiz-adv-x="544" 
d="M498 432q0 -82 -24 -171q-31 -114 -91 -186q-72 -85 -167 -85q-75 0 -121.5 48t-46.5 126q0 127 78 209q71 75 165 75t129 -69h2q4 36 4 61q0 75 -35 116.5t-97 41.5q-49 0 -92 -27l-18 52q48 31 121 31q88 0 140 -57q53 -60 53 -165zM411 311q-22 82 -111 82
q-72 0 -125 -66q-54 -69 -54 -166q0 -50 26.5 -81t70.5 -31q66 0 118 72t75 190z" />
    <glyph glyph-name="summation" unicode="&#x2211;" horiz-adv-x="596" 
d="M562 -207h-543v34l312 388l-291 375v40h499v-61h-400l273 -352l-291 -363h441v-61z" />
    <glyph glyph-name="product" unicode="&#x220f;" horiz-adv-x="680" 
d="M600 -207h-74v773h-372v-773h-74v837h520v-837z" />
    <glyph glyph-name="pi" unicode="&#x3c0;" horiz-adv-x="630" 
d="M580 7q-23 -13 -64 -13q-112 0 -112 121v278h-175v-271q0 -69 -14 -122h-75q16 56 16 126v267q-52 -2 -97 -21l-10 25.5l-10 25.5q52 27 133 27h406v-57h-100v-270q0 -73 57 -73q15 0 29 8z" />
    <glyph glyph-name="integral" unicode="&#x222b;" horiz-adv-x="461" 
d="M264 -53q0 -73 -38 -113.5t-105 -40.5q-46 0 -68 11q3 9 8 27.5t7 28.5q20 -9 44 -9q78 0 78 90v579q0 72 37.5 113t105.5 41q47 0 67 -13q-4 -18 -15 -54q-20 9 -44 9q-77 0 -77 -91v-578z" />
    <glyph glyph-name="uni03A9" unicode="&#x3a9;" horiz-adv-x="665" 
d="M617 0h-217v61q140 115 140 277q0 105 -53 170q-56 69 -155 69q-94 0 -153.5 -66.5t-59.5 -172.5q0 -162 141 -277v-61h-217v61h145q-146 110 -146 288q0 127 81.5 209.5t209.5 82.5q134 0 211 -82q73 -79 73 -207q0 -182 -147 -291h147v-61z" />
    <glyph glyph-name="radical" unicode="&#x221a;" horiz-adv-x="497" 
d="M309 -11h-59l-132 307l-51 -31l-23 41l107 66l127 -296l162 580h56z" />
    <glyph glyph-name="approxequal" unicode="&#x2248;" horiz-adv-x="420" 
d="M384 376q-39 -71 -97 -71q-46 0 -83 26t-65 26q-35 0 -61 -54l-41 48q38 71 100 71q40 0 80 -26t66 -26q33 0 61 54zM384 180q-39 -71 -97 -71q-44 0 -83 26t-65 26q-35 0 -61 -54l-41 48q39 71 100 71q40 0 80 -26t66 -26q33 0 61 54z" />
    <glyph glyph-name="Delta" unicode="&#x2206;" horiz-adv-x="580" 
d="M565 0h-538v36l224 594h92l222 -594v-36zM477 62l-167 448q-5 17 -8 29l-6 23h-3q-2 -10 -5.5 -23.5t-8.5 -27.5l-167 -449h365z" />
    <glyph glyph-name="lozenge" unicode="&#x25ca;" horiz-adv-x="532" 
d="M477 315l-197 -315h-38l-196 314l196 316h38zM414 315l-153 245l-153 -245l153 -245z" />
    <glyph glyph-name="K" unicode="K" horiz-adv-x="547" 
d="M529 0h-93l-162 288h-119v-288h-76v632h76v-277h120l144 277h90l-165 -307z" />
    <glyph glyph-name="k" unicode="k" horiz-adv-x="445" 
d="M437 0h-84l-118 208h-90v-208h-72v632h72v-360h89l99 158h80l-121 -187z" />
    <glyph glyph-name="uniF8FF" unicode="&#xf8ff;" horiz-adv-x="747" 
d="M612 249q0 -26 -6.5 -40.5t-26.5 -24.5l-183 -93v215q0 14 3 21t13 12l131 67q12 6 26 6q18 0 30.5 -12t12.5 -36v-115zM563 472q0 -11 -7 -22t-22 -19l-134 -67q-17 -8 -22 -22t-5 -33v-230l-238 122v234q0 18 5 28t21 18l148 76q31 17 62 17q17 0 33 -5t34 -14l104 -51
q21 -11 21 -32z" />
    <glyph glyph-name="Edieresis" unicode="&#xcb;" horiz-adv-x="478" 
d="M433 0h-354v632h354v-65h-278v-207h239v-65h-239v-230h278v-65zM189 689h-72v71h72v-71zM360 689h-72v71h72v-71z" />
    <glyph glyph-name="idieresis" unicode="&#xef;" horiz-adv-x="218" 
d="M145 0h-72v430h72v-430zM64 487h-72v71h72v-71zM235 487h-72v71h72v-71z" />
    <glyph glyph-name="edieresis" unicode="&#xeb;" horiz-adv-x="457" 
d="M391 -1q-73 -10 -147 -10q-100 0 -140 48q-44 51 -44 183q0 120 42 170.5t138 50.5q98 0 131 -47t33 -182v-23h-273q3 -88 27 -116q21 -25 86 -25q83 0 147 12v-61zM331 249q0 83 -21 111q-18 24 -70 24q-66 0 -89 -38q-16 -26 -19 -97h199zM179 487h-72v71h72v-71z
M350 487h-72v71h72v-71z" />
    <glyph glyph-name="adieresis" unicode="&#xe4;" horiz-adv-x="445" 
d="M375 0h-63l-9 39q-66 -48 -127 -48q-63 0 -98 36t-35 100q0 143 159 143h101v47q0 65 -76 65q-88 0 -142 -9v60q67 8 148 8q142 0 142 -137v-304zM303 100v112h-105q-84 0 -84 -85q0 -37 18.5 -57.5t45.5 -20.5q61 0 125 51zM173 487h-72v71h72v-71zM344 487h-72v71h72
v-71z" />
    <glyph glyph-name="Odieresis" unicode="&#xd6;" horiz-adv-x="598" 
d="M533 316q0 -181 -51 -254t-183 -73t-184 74q-50 71 -50 253q0 180 51 253.5t183 73.5q131 0 182.5 -73.5t51.5 -253.5zM455 316q0 159 -30 209.5t-126 50.5t-126.5 -50.5t-30.5 -209.5q0 -161 30 -210.5t127 -49.5q96 0 126 49.5t30 210.5zM249 689h-72v71h72v-71z
M420 689h-72v71h72v-71z" />
    <glyph glyph-name="Udieresis" unicode="&#xdc;" horiz-adv-x="578" 
d="M504 208q0 -219 -215 -219t-215 219v424h75v-424q0 -83 31.5 -117.5t108.5 -34.5t108 34.5t31 117.5v424h76v-424zM239 689h-72v71h72v-71zM410 689h-72v71h72v-71z" />
    <glyph glyph-name="Adieresis" unicode="&#xc4;" horiz-adv-x="547" 
d="M535 0h-84l-61 186h-233l-61 -186h-84l221 632h81zM370 247l-96 292l-97 -292h193zM224 689h-72v71h72v-71zM395 689h-72v71h72v-71z" />
    <glyph glyph-name="odieresis" unicode="&#xf6;" horiz-adv-x="495" 
d="M436 215q0 -126 -40.5 -176t-148.5 -50q-107 0 -148 50t-41 176q0 121 38 171q42 55 151 55t151 -55q38 -49 38 -171zM364 215q0 106 -21.5 136.5t-95.5 30.5q-73 0 -95 -30.5t-22 -136.5q0 -107 24 -139q22 -28 93 -28q72 0 94.5 29.5t22.5 137.5zM198 487h-72v71h72
v-71zM369 487h-72v71h72v-71z" />
    <glyph glyph-name="udieresis" unicode="&#xfc;" horiz-adv-x="474" 
d="M401 0h-57l-12 39q-61 -49 -126 -49q-79 0 -108 33t-29 130v277h72v-278q0 -64 14 -83.5t53 -19.5q57 0 121 51v330h72v-430zM187 487h-72v71h72v-71zM358 487h-72v71h72v-71z" />
    <glyph glyph-name="ydieresis" unicode="&#xff;" horiz-adv-x="409" 
d="M174 -180h-78l76 192l-167 418h84l120 -324l114 324h80zM155 487h-72v71h72v-71zM326 487h-72v71h72v-71z" />
    <glyph glyph-name="Ydieresis" unicode="&#x178;" horiz-adv-x="493" 
d="M284 0h-75v240l-202 392h81l160 -314l157 314h81l-202 -390v-242zM197 689h-72v71h72v-71zM368 689h-72v71h72v-71z" />
    <glyph glyph-name="Idieresis" unicode="&#xcf;" horiz-adv-x="238" 
d="M157 0h-76v632h76v-632zM74 689h-72v71h72v-71zM245 689h-72v71h72v-71z" />
    <glyph glyph-name="uni00AD" unicode="&#xad;" horiz-adv-x="343" 
d="M302 202h-262v62h262v-62z" />
    </font>
</defs>
</svg>
